<?xml version="1.0" standalone="no"?>
<!DOCTYPE svg PUBLIC "-//W3C//DTD SVG 20010904//EN"
 "http://www.w3.org/TR/2001/REC-SVG-20010904/DTD/svg10.dtd">
<svg version="1.0" xmlns="http://www.w3.org/2000/svg"
 width="298.000000pt" height="298.000000pt" viewBox="0 0 298.000000 298.000000"
 preserveAspectRatio="xMidYMid meet">
<metadata>
Created by potrace 1.14, written by Peter Selinger 2001-2017
</metadata>
<g transform="translate(0.000000,298.000000) scale(0.100000,-0.100000)"
fill="#000000" stroke="none">
<path d="M1305 2974 c-250 -37 -493 -132 -689 -271 -107 -77 -266 -237 -345
-348 -73 -105 -169 -295 -204 -410 -53 -171 -62 -236 -62 -455 0 -178 3 -219
23 -309 46 -205 131 -399 249 -564 74 -105 235 -266 340 -340 165 -118 359
-203 564 -249 90 -20 131 -23 309 -23 219 0 284 9 455 62 115 35 305 131 410
204 115 82 272 239 354 354 73 105 169 295 204 410 53 171 62 236 62 455 0
178 -3 219 -23 310 -65 290 -201 538 -407 745 -203 202 -442 335 -725 402 -88
21 -135 25 -295 28 -104 2 -203 1 -220 -1z m255 -764 l0 -110 -317 0 c-175 0
-328 -3 -341 -6 -22 -6 -23 -8 -20 -143 l3 -136 208 -3 207 -2 0 64 c0 49 4
65 16 70 20 8 202 8 231 0 23 -6 23 -7 25 -248 l3 -241 265 0 265 0 3 241 2
241 47 7 c58 8 176 8 197 0 14 -6 16 -71 16 -640 l0 -634 -130 0 -130 0 -2
272 -3 273 -259 3 c-201 2 -261 -1 -268 -10 -4 -7 -8 -131 -8 -275 l0 -263
-135 0 -135 0 0 185 0 185 -345 0 -345 0 0 640 0 640 475 0 475 0 0 -110z"/>
<path d="M884 1587 c-2 -7 -3 -80 -2 -162 l3 -150 205 0 205 0 0 160 0 160
-203 3 c-160 2 -204 0 -208 -11z"/>
</g>
</svg>
