<?xml version="1.0" encoding="utf-8"?>
<svg version="1.0" width="2710px" height="1062px" viewBox="0 0 2710 1062" preserveAspectRatio="xMidYMid meet" xmlns="http://www.w3.org/2000/svg">
  <g fill="#1183e1">
    <path d="M1350 606 l0 -319 12.8 0 12.8 0 21.4 25.4 21.4 25.4 4.9 -4.1 c35 -30.2 67.8 -48.5 102.5 -57.1 17.1 -4.3 23.9 -5.1 43.2 -5 20.5 0 33 1.6 52.8 6.4 53.2 13 100.3 47.4 128.2 93.5 6.7 11 16 30.6 20 42 4.2 11.9 8.6 30.2 10.7 44.4 2.2 14.5 2.5 57.8 0.5 71.6 -3.1 21.7 -7.8 40.4 -14.3 56.8 -20.1 50.7 -54.6 88.3 -102 111.1 -32 15.5 -65.3 22.5 -101.7 21.3 -14.3 -0.4 -18.4 -0.9 -28.2 -3.5 -20.2 -5.2 -44.4 -15.4 -66.9 -28.1 -5 -2.8 -9.3 -5.1 -9.6 -5.1 -0.3 0 -0.5 54.7 -0.5 121.5 l0 121.5 -54 0 -54 0 0 -319z m244.2 0.7 c18.2 -4.8 32.8 -13 46.5 -26 16 -15.4 26.8 -35.2 31.9 -58.9 2.2 -10.2 3 -33.4 1.5 -45.2 -4.9 -38.9 -25.5 -70 -56.7 -85.5 -17 -8.5 -29.7 -11.4 -49.9 -11.5 -31 -0.1 -54.8 9 -75 28.9 -24 23.5 -34.6 52.9 -33.2 91.5 1 25.5 6.8 44.5 19.6 64 4.9 7.4 18.3 21.3 25.6 26.5 11.8 8.4 28.1 15.3 42.8 18.1 11.5 2.2 34.8 1.2 46.9 -1.9z" style="fill: rgb(255, 255, 255);"/>
    <path d="M837.5 717.4 c-55 -5.6 -99.8 -26.3 -134.6 -62 -34.5 -35.6 -53.9 -80.1 -59 -135.8 -1.5 -16 -0.6 -48.1 1.6 -62.6 15.5 -100.1 88.7 -172.5 187 -185.1 12 -1.5 39 -1.5 49 0 40.7 6.2 83.1 27.5 119.6 60.1 l6.6 5.9 21.3 -25.5 21.3 -25.4 12.8 0 12.9 0 0 211.5 0 211.5 -13.2 0 -13.3 -0.1 -20.5 -28.5 c-11.3 -15.7 -20.7 -28.7 -21 -28.9 -0.3 -0.2 -3.5 2.1 -7 5.2 -36.3 30.9 -73.7 50.1 -113 57.8 -8.2 1.7 -40.9 2.9 -50.5 1.9z m41.2 -109.3 c33.4 -6.9 63.9 -33.1 78.9 -67.9 10.9 -25.2 12.3 -55.6 3.9 -80.9 -6.1 -18 -15.2 -32.9 -28.6 -46.8 -24.3 -25.1 -54.2 -36.3 -86.8 -32.6 -17.6 2.1 -36.2 8.6 -48.9 17.2 -6.8 4.7 -18.7 16.4 -23.8 23.5 -10.4 14.5 -18.1 35.6 -20.3 55.7 -6.2 55.6 14.8 102 55.4 122.4 20.2 10.2 48.2 13.9 70.2 9.4z" style="fill: rgb(255, 255, 255);"/>
    <path d="M2472.5 717.4 c-1.6 -0.2 -7 -0.9 -12 -1.5 -24.7 -3 -48.3 -10.2 -72 -22.1 -58.4 -29.3 -98 -86.3 -109 -157.3 -2.3 -14.6 -3.2 -53.7 -1.6 -68.8 7.3 -68.1 42.8 -127.8 97.1 -163 45.5 -29.4 104.7 -41 153.9 -30.1 35.7 8 72.3 27.6 104.6 56.2 6 5.3 8.3 6.8 9.1 5.9 0.6 -0.7 10.2 -12.1 21.3 -25.4 l20.2 -24.3 12.4 0 12.5 0 0 211.5 0 211.5 -12.8 0 -12.7 0 -20.9 -29 c-20.8 -28.9 -20.9 -28.9 -23.1 -27.2 -1.2 0.9 -7.1 5.7 -13.1 10.5 -24.4 19.8 -51.9 35.3 -78 44 -22 7.3 -30.8 8.8 -53.4 9.2 -10.7 0.2 -20.8 0.1 -22.5 -0.1z m45 -110.3 c10.2 -2.8 26 -10.6 35 -17.3 39.3 -29.7 57.1 -80.9 43.9 -126.5 -11.4 -39.4 -44.2 -72.4 -80.9 -81.5 -10.5 -2.6 -32.5 -3 -43.5 -0.9 -44 8.4 -72.7 36.8 -83.1 82.1 -2.6 11.3 -3.6 38.2 -2 51.4 4.2 32.8 20.3 61.6 43.6 77.6 11 7.5 29.5 14.7 44.1 17 10.3 1.6 33.8 0.5 42.9 -1.9z" style="fill: rgb(255, 255, 255);"/>
    <path d="M1158 414 l0 -296 54.5 0 54.5 0 0 296 0 296 -54.5 0 -54.5 0 0 -296z" style="fill: rgb(255, 255, 255);"/>
    <path d="M1843 414 l0 -296 54 0 54 0 0 93.5 c0 51.4 0.2 93.5 0.5 93.5 0.2 0 3.3 -2 6.9 -4.5 40 -28 102.7 -29.4 156.1 -3.5 59.8 29 100.2 87.2 106.5 153.5 0.6 6.9 1 57.2 1 135.3 l0 124.2 -54.5 0 -54.6 0 0.1 -128.3 c0.2 -115.7 0 -128.9 -1.5 -134.6 -7.6 -29.4 -34.1 -54 -63.9 -59.2 -8.6 -1.4 -28 -0.7 -36.1 1.5 -3.3 0.9 -10.6 3.9 -16.2 6.7 -20 10 -34.6 27.5 -41.5 50.1 l-2.3 7.3 -0.3 128.3 -0.3 128.2 -53.9 0 -54 0 0 -296z" style="fill: rgb(255, 255, 255);"/>
  </g>
  <g fill="#20d2df">
    <path d="M1063 1059 c-0.8 -1 -6.9 -8.3 -13.6 -16.2 -51.2 -60.7 -95 -128.1 -133.3 -204.8 -12.5 -25.1 -35.5 -75 -34.8 -75.6 0.1 -0.2 4.7 -1 10.2 -1.9 32.9 -5.3 71 -20.3 100.1 -39.5 l7 -4.7 13.9 19.4 c11.9 16.5 14.3 19.3 16.5 19.3 2.3 0 3.1 1.2 7.9 11.8 14.1 31 36.6 72.1 56.8 103.7 30.8 48.2 64.3 90.5 100.7 127.2 l17.1 17.1 -72 22.6 c-39.6 12.3 -72.7 22.7 -73.5 23 -0.8 0.3 -2.2 -0.3 -3 -1.4z" style="fill: rgb(17, 131, 225);"/>
    <path d="M482.5 1033.3 c-47.2 -3.9 -85.9 -11.7 -128 -25.8 -62.6 -20.8 -116.4 -51 -169 -94.6 -13.4 -11.1 -49.8 -47.6 -61.7 -61.9 -96.8 -116.3 -139.1 -265.1 -116.8 -411.2 22 -144.4 104.8 -273.5 226.5 -353.4 74.7 -49 158.8 -77.7 247.4 -84.5 20.6 -1.5 73.9 -0.7 92.6 1.6 103.1 12.2 194.5 50.7 273 114.9 21 17.2 47.9 60.4 62.8 100.6 5.5 14.9 5.4 14.1 1.5 12.9 -8.1 -2.3 -24.5 -4.9 -37.5 -5.8 -32.2 -2.5 -72.2 3.2 -102.8 14.4 -14.8 5.5 -13.1 5.8 -21 -3.5 -22 -25.8 -57.1 -49.8 -95.2 -64.9 -109.4 -43.4 -234.7 -31.6 -334.6 31.6 -153.2 96.9 -213.7 289.6 -143.6 456.7 49.7 118.2 154.9 202 280.4 223.1 22.3 3.7 36.3 4.9 61.5 4.9 25.2 0 39.2 -1.2 61.8 -5 49.3 -8.2 97 -26.7 139.2 -53.8 l8.4 -5.4 18.4 35.6 c10.1 19.7 25.1 48.9 33.3 64.9 l15 29.2 -5.3 3.4 c-16.6 10.6 -43.9 24.8 -66.3 34.5 -51.9 22.4 -104.4 35.7 -161.5 40.7 -14.8 1.3 -66.2 1.9 -78.5 0.8z" style="fill: rgb(17, 131, 225);"/>
    <path d="M2024.5 924 c-23.6 -3.8 -35.1 -15.5 -38.4 -39.3 -1.4 -9.8 -1.4 -81 -0.1 -89.2 1.3 -8.4 7.1 -19.6 12.3 -24 10.2 -8.8 25.6 -13.1 42.7 -12.1 31.3 1.9 47 17.8 47 47.7 l0 10.9 -18.4 0 -18.3 0 -0.5 -10.7 c-0.3 -6.9 -1 -11.7 -1.9 -13.1 -3.3 -5.4 -13.8 -7.9 -19.9 -4.7 -6 3.1 -6 3.2 -6 50.7 0 26.4 0.4 44.7 1 47 1.6 5.5 6 8.8 12.1 8.8 11.3 0 14 -4.5 14.7 -23.7 l0.5 -13.3 18.3 0 18.4 0 0 12.8 c0 29.9 -9.4 44.8 -31.7 50.6 -7.6 2 -24 2.8 -31.8 1.6z" style="fill: rgb(17, 131, 225);"/>
    <path d="M1562.4 922.5 c-22.1 -4.8 -32.4 -19.8 -32.4 -47.2 l0 -7.3 17.5 0 17.5 0 0 8.5 c0 14.3 3.7 19.5 13.9 19.5 9.3 0 13.4 -4.8 13.4 -15.5 0 -10.9 -3.2 -14.4 -26.3 -28.5 -8.5 -5.2 -17.6 -11.5 -20.2 -14.1 -8.4 -8.4 -12.9 -20.3 -12.9 -34.6 -0.1 -14.6 2.6 -22.6 10.4 -31 8.5 -9.3 19.6 -13.5 35.7 -13.5 28.6 0 44.7 14.8 47.5 43.5 l0.7 6.7 -17 0 -16.9 0 -1 -7.4 c-1.3 -9.1 -3.8 -13.1 -9.4 -14.7 -12 -3.6 -19.8 8 -14 20.8 2.3 4.9 4.6 6.7 24.6 18.8 17.5 10.6 24.4 16.8 28.5 25.7 5.4 11.8 6.1 30.6 1.5 44.4 -6.1 18.2 -21.5 27.5 -45.5 27.3 -5.2 0 -12.3 -0.7 -15.6 -1.4z" style="fill: rgb(17, 131, 225);"/>
    <path d="M1788.8 922.4 c-11.9 -2.8 -21.6 -9.7 -26.9 -18.9 -5.7 -9.9 -6 -14.1 -5.7 -66 l0.3 -47 3.1 -6.5 c5.5 -11.6 16 -19.6 30.4 -23.1 7.1 -1.8 26.9 -1.8 34 0 12.5 3.1 23.3 10.7 28.3 19.8 5.4 10.1 5.7 12.9 5.7 59.9 0 39.9 -0.1 43.7 -2 51 -4.4 17.1 -14.3 26.9 -31.2 30.9 -7.9 1.9 -28.2 1.8 -36 -0.1z m24.3 -27.9 c1.6 -0.9 3.9 -3 4.9 -4.8 1.9 -3 2 -5.3 2 -48 0 -49.1 0 -49.1 -6 -52.2 -4.4 -2.3 -12.2 -2 -15.5 0.7 -5.4 4.2 -5.5 5.1 -5.5 51.2 0 27.7 0.4 43.5 1.1 45.3 3 8 11.6 11.6 19 7.8z" style="fill: rgb(17, 131, 225);"/>
    <path d="M2220 842 l0 -79 18.5 0 18.5 0 0 79 0 79 -18.5 0 -18.5 0 0 -79z" style="fill: rgb(17, 131, 225);"/>
    <path d="M2381 920.5 c0 -0.5 30 -139 32.6 -150.7 l1.6 -6.8 22.6 0 22.7 0 17.3 78.3 c9.5 43 17.2 78.5 17.2 79 0 0.4 -8.2 0.7 -18.3 0.7 l-18.3 0 -1.2 -7.2 c-0.7 -4 -2 -11.2 -2.9 -16 l-1.6 -8.8 -14.8 0 c-8.2 0 -14.9 0.2 -14.9 0.5 0 0.9 -4.1 27 -4.6 29.3 -0.4 2.2 -0.6 2.2 -18.9 2.2 -10.2 0 -18.5 -0.2 -18.5 -0.5z m61.6 -94.6 c-3 -20.7 -5.3 -34.4 -5.8 -33.3 -0.5 1.6 -9.8 65.1 -9.8 67.7 0 0.4 4.6 0.7 10.3 0.7 l10.4 0 -5.1 -35.1z" style="fill: rgb(17, 131, 225);"/>
    <path d="M2619 842 l0 -79 19 0 19 0 0 63.5 0 63.5 22.5 0 22.5 0 0 15.5 0 15.5 -41.5 0 -41.5 0 0 -79z" style="fill: rgb(17, 131, 225);"/>
  </g>
</svg>