<?xml version="1.0" encoding="utf-8"?>
<!DOCTYPE svg PUBLIC "-//W3C//DTD SVG 20010904//EN" "http://www.w3.org/TR/2001/REC-SVG-20010904/DTD/svg10.dtd">
<svg version="1.0" xmlns="http://www.w3.org/2000/svg" width="2426px" height="717px" viewBox="0 0 2426 717" preserveAspectRatio="xMidYMid meet">
 <g fill="#434343">
  <path d="M225.7 647.6 c-53.2 -37.6 -101.1 -72 -106.4 -76.3 -12.5 -10 -34.1 -30.9 -45.2 -43.8 -42.2 -49 -66.3 -105.6 -72.2 -169.9 -1.5 -16.1 -0.7 -49.5 1.6 -66.6 2.2 -16.3 6.7 -38 11.1 -53.2 1.9 -6.7 3.6 -12.3 3.7 -12.4 0.1 -0.1 42.3 29.7 93.7 66.2 55.1 39.1 93.4 67 93.4 67.9 -0.1 0.8 -16 51.2 -35.4 112 -19.4 60.8 -35.1 110.8 -34.8 111 0.3 0.3 42.5 -29.6 93.7 -66.5 53.7 -38.7 93.8 -67 94.6 -66.6 1.4 0.5 183 130.9 185.3 133.1 1 0.9 -17.5 14.5 -91.8 67.1 -51.1 36.2 -93.4 66 -93.8 66.2 -0.5 0.1 -44.4 -30.5 -97.5 -68.2z"/>
  <path d="M2220 589.4 c-90 -11.1 -145 -78.6 -158.6 -194.4 -2.1 -18.5 -3 -63.6 -1.5 -83 5.8 -76.2 27.1 -130.7 65.8 -168.1 21.9 -21.1 46.4 -33.9 77.7 -40.5 16.5 -3.5 47.3 -4.4 64.9 -2 45 6.3 81.5 27.5 107.8 62.6 20.7 27.6 35.7 65.1 42.9 107.3 4.1 24.4 5.4 40.9 5.4 72.7 0 49.6 -4.6 82.4 -17 119.9 -22.3 67.7 -65.7 109.8 -126.8 122.7 -10.5 2.2 -15 2.6 -34.6 2.9 -12.4 0.2 -24.1 0.1 -26 -0.1z m38.2 -72.9 c32.8 -6.9 56.1 -33.5 69.2 -79.1 4 -13.8 8.1 -37.5 9.6 -54.9 1.7 -21 0.9 -79.9 -1.2 -82 -1 -1.1 -180.7 129.8 -180.7 131.7 -0.2 3.7 7.3 24 12.9 35.3 6.7 13.7 16.3 26.3 25.5 33.8 7.7 6.2 22 13.2 31 15.1 9 1.9 25.2 2 33.7 0.1z m-20.3 -198.9 l89.3 -64.9 -0.7 -3.4 c-0.3 -1.9 -2.1 -7.4 -4 -12.2 -17.5 -45.9 -46.3 -68 -85.8 -65.8 -47.6 2.6 -78.5 45.1 -88.2 121.1 -2.2 17.5 -3.7 49 -3 65.6 0.7 17.7 1.4 25.2 2.4 24.8 0.4 -0.2 40.9 -29.5 90 -65.2z"/>
  <path d="M839.3 588 c-53.1 -4.7 -90.1 -32.6 -101.4 -76.7 -3.2 -12.7 -4.4 -28.6 -3 -41.7 4.7 -47 32.4 -75 88.2 -89.1 14.8 -3.8 29.3 -6 60.9 -9.5 44.6 -4.9 56.9 -7.4 65.6 -13.3 7.6 -5 8.9 -8.2 8.8 -20.7 -0.1 -27.3 -13.3 -44.6 -39.4 -51.7 -9.7 -2.7 -34.6 -2.4 -45.5 0.5 -21 5.6 -37.5 18 -45.2 34.1 -2.8 5.9 -4.3 8 -5.8 8 -2.1 0.1 -73.1 -9.8 -75.2 -10.4 -0.9 -0.3 -0.6 -2.3 1.1 -7.2 13.2 -38.9 42.9 -67.5 84.5 -81.3 40.1 -13.4 89.1 -13.4 129.2 0 13.8 4.6 21.3 8.2 32.9 15.8 27 17.8 43.4 46.3 46.9 81.6 0.7 7.3 1.1 51.7 1.1 132.8 l0 121.8 -40.5 0 -40.5 0 0 -24.5 c0 -20.3 -0.2 -24.5 -1.4 -24.5 -0.8 0 -3.6 3.5 -6.2 7.8 -15 24 -42.7 41.4 -74.4 46.5 -12.2 2.1 -29.1 2.7 -40.7 1.7z m61.4 -63.9 c23.1 -5.8 41.2 -19.8 50.7 -39.3 6.6 -13.6 7.6 -19.9 7.6 -49.3 0 -13.6 -0.3 -24.5 -0.7 -24.3 -11 5.5 -26.8 9.5 -52.3 13.3 -43.1 6.4 -53.4 8.9 -66.3 15.7 -18 9.7 -26.8 26.7 -24 46.3 2.9 20.1 16.8 33.5 40.2 38.6 11.4 2.5 32.7 2 44.8 -1z"/>
  <path d="M1587 587.5 c-0.8 -0.2 -4.9 -0.9 -9 -1.5 -17.3 -2.8 -35.7 -10.8 -48.4 -21.1 -11.9 -9.6 -20.4 -21.5 -25.7 -36 -6.5 -17.8 -6.2 -11.8 -6.6 -130.1 l-0.4 -107.8 -25.4 0 -25.5 0 0 -33 0 -33 25.5 0 25.5 0 0 -45 0 -45 42 0 42 0 0 45 0 45 35.5 0 35.5 0 0 33 0 33 -35.5 0 -35.5 0 0 95.8 c0 61.7 0.4 98 1.1 102.2 2 12.6 7.5 21.2 16.2 25.4 9.3 4.6 18.6 5 47 2 l6.7 -0.7 0 33 0 33 -4.2 1.2 c-11.9 3.2 -20.4 4.2 -39.3 4.6 -11 0.2 -20.7 0.2 -21.5 0z"/>
  <path d="M1190.5 585.9 c-24.9 -3.2 -46.7 -13.3 -63.7 -29.7 -18.2 -17.5 -29.4 -39.6 -35.5 -69.9 -1.6 -8.1 -1.8 -19.3 -2 -135.5 l-0.4 -126.8 42.1 0 42 0 0 114.3 c0 121.7 -0.1 119.1 4.9 133.1 5.1 14.6 17.1 28.4 30.1 34.8 11.3 5.5 18.6 7.1 32.5 7.1 13.9 -0.1 23.3 -2.1 34.1 -7.6 19.9 -10 33.2 -26.6 39.6 -49.2 l2.3 -8 0.3 -112.2 0.3 -112.3 41.9 0 42 0 0 179 0 179 -40.5 0 -40.5 0 0 -31.5 0 -31.5 -2.4 0 c-2 0 -2.9 1 -5.1 5.7 -4.1 9.1 -13.3 22 -21 29.8 -24.4 24.4 -62.5 36.2 -101 31.4z"/>
  <path d="M509.1 576.7 c-18.3 -56.1 -69.1 -217.2 -68.8 -218.1 0.6 -1.4 185.1 -132.6 186.5 -132.6 0.5 0 2.6 6.1 4.6 13.5 19.9 72.1 17.3 140.4 -7.8 202.7 -20.9 52.2 -57.4 98.9 -106.3 136.1 l-6.1 4.7 -2.1 -6.3z"/>
  <path d="M1697 341 l0 -241 41 0 41 0 0 92.5 0 92.5 2.3 0 c1.9 0 2.9 -1.2 5.3 -6.2 5 -10.6 12.3 -21 20.8 -29.3 14 -13.9 30.8 -22.6 52.5 -27.2 15.2 -3.2 40.3 -3.6 55.6 -0.9 54.3 9.8 88.3 47.4 96 106.4 1.3 9.5 1.5 31.2 1.5 132.8 l0 121.4 -42 0 -42 0 0 -113.7 c0 -108.9 -0.1 -114.2 -2 -123.3 -5.4 -26.4 -21.9 -44.5 -46.7 -51.2 -11.1 -3 -32.5 -3 -43.8 0.1 -21.1 5.6 -37 18.1 -45.9 36.1 -2.5 5.2 -5.6 13.1 -6.8 17.5 l-2.3 8 -0.3 113.3 -0.3 113.2 -41.9 0 -42 0 0 -241z"/>
  <path d="M19.5 221.8 c0.4 -1.3 16.4 -51.2 35.6 -111 19.2 -59.9 34.9 -109 34.9 -109.3 0 -0.3 52.2 -0.5 116 -0.5 63.8 0 116 0.2 116 0.4 0 0.3 -16 50.3 -35.5 111.1 -19.5 60.8 -35.5 110.8 -35.5 111 0 0.3 -52.2 0.5 -116.1 0.5 l-116 0 0.6 -2.2z"/>
  <path d="M394.7 223.3 c-0.3 -0.5 -16.3 -50.3 -35.7 -110.8 -19.4 -60.5 -35.4 -110.3 -35.7 -110.8 -0.2 -0.4 51.9 -0.6 115.8 -0.5 l116.3 0.3 30.8 96 c16.9 52.8 33 102.9 35.7 111.3 l4.9 15.2 -115.9 0 c-63.7 0 -116 -0.3 -116.2 -0.7z"/>
 </g>
</svg>