<?xml version="1.0" encoding="utf-8"?>
<svg version="1.0" width="471px" height="157px" viewBox="1.999 4.13 462.501 148.593" preserveAspectRatio="xMidYMid meet" xmlns="http://www.w3.org/2000/svg">
  <g fill="#43a24d">
    <path d="M26.7 151.6 c-6.2 -1.7 -14.6 -7.5 -18.4 -12.9 -6.5 -9 -6.3 -7.1 -6.3 -60.6 0 -48.6 0 -48.6 2.4 -53.8 3.3 -7.1 9.4 -13.4 16.3 -16.9 5.8 -2.9 5.8 -2.9 211.8 -3.2 206 -0.2 206 -0.2 213.2 3.3 7.5 3.7 11.4 7.4 16 15.2 2.8 4.8 2.8 4.8 2.8 55.3 0 50.5 0 50.5 -2.9 55.8 -3.6 6.4 -9.6 12.1 -16.8 15.9 -5.3 2.8 -5.3 2.8 -209.3 3 -164 0.1 -204.9 -0.1 -208.8 -1.1z m129.4 -34.6 c7.8 -2.2 15.8 -12.1 15.9 -19.8 0 -9.7 -6.9 -17 -21.7 -22.9 -8.3 -3.3 -13.9 -6.6 -15.3 -9.2 -1.3 -2.6 -1.3 -9.4 0.1 -12.4 1.6 -3.4 4.9 -4.7 12.4 -4.7 9.6 0 11.3 1.1 13.9 9.3 0.4 1.3 1.6 1.7 5.1 1.7 4.1 0 4.5 -0.2 4.5 -2.4 0 -2.4 -4 -9.1 -6.9 -11.4 -10.5 -8.3 -22.4 -8.5 -32.8 -0.6 -3.5 2.7 -8.3 11 -8.3 14.4 0 6.7 7.3 15.7 16 19.7 22.8 10.5 22 9.8 22 19.9 0 4.7 -0.4 5.9 -2.7 8 -2.6 2.4 -3.3 2.6 -11.4 2.2 -10.1 -0.4 -12.3 -1.7 -14.1 -8.5 -1 -4.3 -1 -4.3 -5.9 -4.3 -5.4 0 -5.8 0.7 -3.7 5.7 5.2 12.1 19.8 18.9 32.9 15.3z m181 -2.3 c5.2 -3.2 11.2 -10.4 13.6 -16.5 1.5 -3.8 1.8 -7.6 1.8 -20.2 0 -14.7 -0.1 -15.8 -2.6 -21.1 -5.3 -11.3 -14.9 -18.3 -25 -18.2 -9.6 0.1 -20.7 9.4 -24.6 20.8 -1.4 3.9 -1.8 8.2 -1.8 19.5 0 14.4 0 14.6 3.3 21.2 3.8 7.7 11.3 15.1 16.9 16.7 5.7 1.6 13.6 0.6 18.4 -2.2z m-264.1 -1.1 c6.1 -4 9.8 -8.2 12.9 -14.6 2.5 -5.2 2.6 -6.3 2.6 -21 0 -13.8 -0.3 -16 -2.2 -20.2 -3.1 -6.7 -8.6 -12.3 -15.1 -15.4 -4.9 -2.4 -7.3 -2.8 -17.4 -3.2 -8.5 -0.3 -12.2 -0.1 -13.3 0.8 -1.3 1.1 -1.5 6.6 -1.5 38.5 0 20.4 0.3 37.5 0.8 37.9 0.4 0.5 7 0.6 14.8 0.4 13.5 -0.3 14.2 -0.4 18.4 -3.2z m37.8 -35.3 c0.2 -38.2 0.2 -38.2 -3.2 -38.8 -7.6 -1.5 -7.1 -4.5 -7.4 38.8 -0.2 38.8 -0.2 38.8 5 38.5 5.3 -0.3 5.3 -0.3 5.6 -38.5z m99 4.5 c0.2 -33.8 0.2 -33.8 9.1 -33.8 9.7 0 10.1 -0.3 10.1 -6.1 0 -2.1 -0.6 -3 -2.2 -3.4 -1.3 -0.3 -12.2 -0.4 -24.3 -0.3 -22 0.3 -22 0.3 -22.3 5 -0.3 4.8 -0.3 4.8 8.7 4.8 9.1 0 9.1 0 9.1 32.4 0 17.8 0.3 33.2 0.6 34.1 0.5 1.2 1.8 1.5 5.8 1.3 5.1 -0.3 5.1 -0.3 5.4 -34z m39.7 28.9 c0.4 -3 0.5 -10.1 0.3 -15.8 -0.3 -10.4 -0.3 -10.4 7.7 -10.7 4.4 -0.2 9.6 0.1 11.6 0.7 6.2 1.8 7.1 3.8 7.7 15.3 0.6 13.3 1.8 15.8 7.5 15.8 4.3 0 4.3 0 3.9 -9.2 -0.4 -12.2 -2.6 -18.4 -7.4 -21.7 -5.2 -3.6 -5.2 -7.5 0.1 -12.8 7.8 -7.8 7.7 -17.6 -0.3 -25.9 -6.1 -6.3 -14.4 -8.6 -30.1 -8.2 -12 0.3 -12 0.3 -12.3 37.8 -0.1 20.6 0 38.1 0.3 38.7 0.3 0.8 2.3 1.3 5.4 1.3 5 0 5 0 5.6 -5.3z m152.5 -52.9 c0 -0.4 -0.9 -0.8 -2 -0.8 -2.1 0 -2.4 0.8 -1.3 3.6 0.6 1.6 0.7 1.6 2 -0.2 0.7 -1 1.3 -2.1 1.3 -2.6z m14.1 -6.7 c0 -4.6 -0.2 -8.5 -0.5 -8.9 -0.3 -0.3 -0.6 3.7 -0.6 8.8 0 5.1 0.2 9.1 0.5 8.8 0.3 -0.3 0.6 -4.2 0.6 -8.7z m-36.1 5.5 c0 -0.2 -1.1 -0.6 -2.5 -0.8 -1.4 -0.3 -2.5 -0.1 -2.5 0.3 0 0.5 1.1 0.9 2.5 0.9 1.4 0 2.5 -0.2 2.5 -0.4z m2.5 -15.3 c-0.9 -3.6 -1.4 -4.1 -2.5 -2.3 -1.7 2.6 -1.1 5 1.1 5 1.8 0 2 -0.4 1.4 -2.7z"/>
    <path d="M319.5 108.3 c-3.1 -0.8 -7.3 -5.2 -8.7 -9.2 -0.9 -2.4 -1.3 -9.6 -1.3 -21.6 0 -20.2 1 -24 6.9 -27.6 4.1 -2.5 14.6 -2.6 18.6 -0.2 5.5 3.2 6.5 7.6 6.5 28.8 0 17 -0.2 19.4 -2 22.9 -3.2 6.3 -11.1 9 -20 6.9z"/>
    <path d="M51.7 107.4 c-0.4 -0.4 -0.7 -13.7 -0.7 -29.6 0 -28.8 0 -28.8 8.1 -28.8 6.5 0 8.8 0.4 11.6 2.1 6.2 3.9 6.8 6.2 6.8 26.9 0 17 -0.2 18.8 -2.2 22.5 -1.1 2.3 -3.2 4.6 -4.5 5.2 -2.7 1.4 -18.1 2.7 -19.1 1.7z"/>
    <path d="M249.6 74.8 c-0.3 -0.7 -0.4 -6.7 -0.3 -13.3 0.2 -12 0.2 -12 8.2 -12.3 11.3 -0.4 14.2 0.3 16.6 4.1 1.6 2.6 1.9 4.6 1.7 10.4 -0.5 10.7 -1.8 11.7 -15.3 12.1 -8.1 0.3 -10.6 0.1 -10.9 -1z"/>
  </g>
  <g fill="#e9f3ea">
    <path d="M26.1 151.5 c-9.7 -3 -18.7 -11.6 -22.8 -21.6 -1.6 -4 -1.8 -8.4 -1.8 -51.9 0 -47.5 0 -47.5 2.6 -53.1 3.2 -6.9 8.6 -12.9 14.4 -16.3 10 -5.9 -2.1 -5.6 215 -5.6 221.2 0 205.8 -0.5 216.5 6.8 7.1 4.8 13.2 13.7 14.9 21.8 0.9 4.3 1.1 17.7 0.9 49.9 -0.3 44 -0.3 44 -3 49.7 -3.5 7.6 -9.5 13.8 -17 17.9 -6.3 3.4 -6.3 3.4 -210.8 3.6 -171.4 0.1 -205.2 0 -208.9 -1.2z m416.1 -4.7 c6.9 -3.2 14.2 -10.3 17.1 -16.6 2.2 -4.6 2.2 -5.6 2.2 -52.2 0 -47.5 0 -47.5 -2.7 -52.6 -3.4 -6.5 -8.8 -11.6 -15.7 -15.1 -5.6 -2.8 -5.6 -2.8 -209.6 -2.8 -204 0 -204 0 -210 3 -7.7 3.9 -13.9 10.4 -16.5 17.2 -1.9 5.1 -2 7.7 -2 51.1 0 45.7 0 45.7 2.4 50.8 4.6 9.8 13.6 17.5 22.7 19.3 2.4 0.5 94.9 0.8 205.4 0.7 201 -0.1 201 -0.1 206.7 -2.8z" style="fill: rgb(255, 255, 255);"/>
    <path d="M31 141.1 c-5 -1.6 -8.9 -4.1 -12.4 -8.3 -6.5 -7.6 -6.7 -9.4 -6.4 -56.9 0.3 -41.3 0.4 -42.5 2.5 -46.4 2.9 -5.5 7.2 -9.6 12.9 -12.5 4.9 -2.5 4.9 -2.5 205.4 -2.5 200.5 0 200.5 0 207 3.2 7.6 3.8 12.3 9.7 14 17.9 0.7 3.3 1 19.3 0.8 46 -0.3 40.4 -0.3 40.9 -2.6 45.2 -3.3 6.3 -9.2 11.7 -14.7 13.6 -4.4 1.5 -21.8 1.6 -204.4 1.5 -109.8 0 -200.7 -0.4 -202.1 -0.8z m407.5 -5.3 c4.3 -2.3 8.1 -6.6 10.4 -11.8 2 -4.3 2.1 -6.4 2.1 -45.8 0 -41.3 0 -41.3 -2.6 -46.8 -3 -6.3 -8 -10.5 -14.6 -12.3 -3.2 -0.9 -52.9 -1.1 -202.8 -0.9 -198.5 0.3 -198.5 0.3 -202.7 2.5 -5.1 2.7 -9.6 8.2 -11.2 13.2 -0.7 2.6 -1.1 17 -1.1 45.2 0 38.2 0.2 41.7 1.9 45.5 2 4.5 5.9 8.6 10.6 11.2 2.8 1.6 17.5 1.7 197.1 2.2 106.7 0.3 197.6 0.3 202 0 4.5 -0.3 9.2 -1.3 10.9 -2.2z" style="fill: rgb(255, 255, 255);"/>
    <path d="M30.9 129 c-7.6 -4 -7.4 -2.4 -7.7 -49.9 -0.3 -42.4 -0.3 -42.4 2.3 -46.3 4.9 -7.4 -12.2 -6.8 208.7 -6.8 157.4 0 199.8 0.3 201.8 1.3 1.3 0.7 3.5 2.8 4.7 4.6 2.3 3.4 2.3 3.4 2.3 46.9 0 43.5 0 43.5 -4.4 47.8 -4.3 4.4 -4.3 4.4 -204.2 4.4 -194.5 -0.1 -200 -0.1 -203.5 -2z m404.6 -2.8 c5.7 -4.8 5.5 -3.2 5.5 -48.3 0 -41.7 0 -41.7 -2.5 -44.7 -1.3 -1.6 -3.7 -3.5 -5.2 -4.1 -2.1 -0.8 -54.4 -1.1 -201.6 -0.9 -198.9 0.3 -198.9 0.3 -202.3 4 -3.4 3.8 -3.4 3.8 -3.4 46.2 0 42.5 0 42.5 3.4 46 3.3 3.6 3.3 3.6 203.7 3.6 187.9 -0.1 200.5 -0.2 202.4 -1.8z" style="fill: rgb(255, 255, 255);"/>
    <path d="M137.5 119.6 c-9.7 -3.1 -15 -8.2 -18 -17.3 -2.7 -8.3 -2.3 -8.8 7.1 -9.1 8.1 -0.3 8.1 -0.3 9.2 4.1 1.6 6 4.1 8 11 8.5 5 0.4 6 0.1 8.5 -2.2 2.8 -2.6 3.4 -5.7 1.7 -10 -0.9 -2.4 -2.5 -3.3 -21 -11.9 -14.3 -6.6 -20 -20.9 -13.2 -33.2 6.6 -12.2 24.5 -17 37.9 -10.2 8.8 4.5 13.4 10.7 13.7 18.6 0.1 4.6 0.1 4.6 -7.7 4.9 -6.7 0.2 -7.8 0 -8.3 -1.5 -2.5 -7.6 -4.5 -9.3 -10.9 -9.3 -4.8 0 -8.2 1.8 -9.6 5.2 -2.3 5.7 1.8 9.7 15.4 15.1 16.2 6.5 21.7 13 21.7 25.9 0 3.9 -0.7 7.8 -1.9 10.4 -2.2 4.9 -9.2 11.1 -14 12.4 -4.9 1.4 -16.7 1.1 -21.6 -0.4z" style="fill: rgb(255, 255, 255);"/>
    <path d="M315.7 119.9 c-5.6 -1.6 -13.1 -9 -16.9 -16.7 -3.3 -6.7 -3.3 -6.7 -3.3 -24.2 0 -14.1 0.3 -18.5 1.8 -22.5 2.5 -7.2 8.3 -14.3 14.7 -17.8 4.8 -2.7 6.5 -3.1 13 -3.1 13.1 -0.1 22 5.8 27.9 18.3 2.5 5.4 2.6 6.2 2.6 24.1 0 21 -0.8 24.5 -7.5 32.6 -6 7.3 -10.9 9.7 -20.5 10 -4.4 0.2 -9.7 -0.2 -11.8 -0.7z m16.8 -16.5 c4.9 -3.2 5.9 -7.4 6 -24.9 0 -13.5 -0.3 -16.7 -1.8 -20.1 -4.5 -9.9 -17.3 -9.8 -22.3 0.2 -1.6 3.3 -1.9 6.1 -1.9 18.9 0 16.5 0.9 20.6 5.3 24.7 4.3 4.1 9.6 4.5 14.7 1.2z" style="fill: rgb(255, 255, 255);"/>
    <path d="M36.8 119.4 c-0.5 -0.4 -0.8 -18.8 -0.8 -40.9 0 -34.4 0.2 -40.4 1.5 -41.5 1.1 -0.9 5.5 -1.1 16.2 -0.8 13.6 0.4 15.2 0.6 20.5 3.1 6.5 3.2 12 8.8 15.1 15.5 2 4.3 2.2 6.3 2.2 23.2 0 17.9 -0.1 18.7 -2.6 24 -3.1 6.4 -6.8 10.6 -12.9 14.6 -4.3 2.9 -4.5 2.9 -21.4 3.2 -9.4 0.2 -17.4 0 -17.8 -0.4z m31 -16.7 c1.3 -0.6 3.4 -2.9 4.5 -5.2 2 -3.6 2.2 -5.5 2.2 -19.5 0 -12.8 -0.3 -16.1 -1.7 -18.7 -2.6 -4.6 -7.6 -7.3 -13.7 -7.3 -5.1 0 -5.1 0 -5.1 25.8 0 14.2 0.2 26.1 0.4 26.3 0.8 0.8 11.2 -0.2 13.4 -1.4z" style="fill: rgb(255, 255, 255);"/>
    <path d="M97.2 78.3 c0.3 -41.8 0.3 -41.8 5.3 -42.1 2.7 -0.2 6.5 -0.1 8.3 0.3 3.2 0.6 3.2 0.6 3 41.8 -0.3 41.2 -0.3 41.2 -8.6 41.5 -8.2 0.3 -8.2 0.3 -8 -41.5z" style="fill: rgb(255, 255, 255);"/>
    <path d="M195.6 118.5 c-0.3 -0.9 -0.6 -16.3 -0.6 -34.1 0 -32.4 0 -32.4 -9 -32.4 -9.1 0 -9.1 0 -8.8 -7.7 0.3 -7.8 0.3 -7.8 25.3 -8.1 13.8 -0.1 26 0 27.3 0.3 2 0.5 2.2 1.1 2.2 6.4 0 9.2 0.1 9.1 -10.1 9.1 -8.9 0 -8.9 0 -9.1 33.8 -0.3 33.7 -0.3 33.7 -8.4 34 -6.8 0.2 -8.3 0 -8.8 -1.3z" style="fill: rgb(255, 255, 255);"/>
    <path d="M235.5 118.7 c-0.3 -0.6 -0.4 -19.4 -0.3 -41.7 0.3 -40.5 0.3 -40.5 15.3 -40.8 19 -0.3 26.7 1.6 33 8.2 8.9 9.3 8.7 25.2 -0.6 33 -2.9 2.5 -3.1 2.9 -1.6 3.8 6.7 3.7 9.7 10.4 9.7 21.6 0.1 4.2 0.7 9.5 1.5 11.7 0.8 2.2 1.5 4.3 1.5 4.8 0 0.4 -3.8 0.7 -8.5 0.7 -8.2 0 -8.5 -0.1 -9.8 -2.7 -0.8 -1.6 -1.6 -7.2 -1.9 -13.1 -0.4 -8 -0.9 -10.6 -2.3 -12.2 -2.4 -2.7 -7.9 -4.2 -13.9 -3.8 -4.8 0.3 -4.8 0.3 -4.8 14.7 0 7.9 -0.2 15 -0.5 15.7 -0.7 1.9 -16.1 2 -16.8 0.1z m34.6 -48.4 c3.1 -3 3.6 -9.9 1 -14 -2.3 -3.6 -5.6 -4.6 -13.6 -4.1 -5 0.3 -5 0.3 -4.8 10.3 0.1 5.5 0.2 10.2 0.3 10.4 0 0.2 3.4 0.1 7.5 -0.1 6 -0.3 7.9 -0.8 9.6 -2.5z" style="fill: rgb(255, 255, 255);"/>
    <path d="M401.7 117.2 c-1 -1 -1.7 -3.1 -1.7 -4.5 0 -2.7 0 -2.7 -13.9 -2.7 -17.4 0 -17.1 0.3 -17.1 -14.5 0 -5.5 0.4 -10.5 0.8 -11.1 1.7 -2.7 5.6 -3.4 17.6 -3.4 12.6 0 12.6 0 12.6 -2.5 0 -3.2 3.8 -6.7 6.4 -5.9 1.2 0.3 3.2 1.6 4.6 2.9 1.4 1.2 4.1 3.5 6 5.1 9.6 8.1 15 14.1 14.4 16 -0.7 2.1 -3.5 4.8 -16 15.5 -8.5 7.2 -11 8.1 -13.7 5.1z m14.2 -12.9 c4.7 -4.2 8.7 -8 8.9 -8.4 0.2 -0.4 -3.9 -4.4 -9 -8.9 -9.3 -8.3 -9.3 -8.3 -9.8 -4.4 -0.5 3.9 -0.5 3.9 -15.7 4.2 -15.3 0.3 -15.3 0.3 -15.3 8.7 0 8.5 0 8.5 13.9 8.5 7.7 0 14.6 0.3 15.5 0.6 1 0.4 1.6 1.8 1.6 4 0 1.9 0.3 3.4 0.6 3.4 0.4 0 4.5 -3.4 9.3 -7.7z" style="fill: rgb(255, 255, 255);"/>
    <path d="M370.7 66.2 c-1.2 -0.2 -1.7 -1 -1.4 -2 0.3 -1 1.9 -6.9 3.6 -13.2 4.2 -15.6 4.4 -16 8.1 -16 2.4 0 3.3 0.6 4.1 2.8 0.9 2.4 6.9 24.3 7.2 26.7 0.1 0.6 -1.2 1.1 -2.8 1.3 -2.5 0.2 -3.2 -0.2 -4.1 -2.6 -1 -2.5 -1.5 -2.8 -4.7 -2.4 -2.5 0.3 -3.8 1 -4.2 2.3 -0.8 2.3 -3.3 3.7 -5.8 3.1z m11.8 -14.9 c-1.1 -4.6 -1.9 -4.6 -3 0 -0.6 2.3 -0.4 2.7 1.5 2.7 1.9 0 2.1 -0.4 1.5 -2.7z" style="fill: rgb(255, 255, 255);"/>
    <path d="M398.3 66.2 c-1.7 -0.2 -2.5 -1.4 -3.4 -4.5 -0.6 -2.3 -2.3 -8.7 -3.8 -14.2 -1.6 -5.5 -2.6 -10.6 -2.3 -11.2 0.6 -1.9 5 -1.6 6.1 0.5 0.5 0.9 1.7 5.4 2.7 10 1.1 4.5 2.1 8.2 2.4 8.2 0.3 0 1.4 -4 2.4 -9 1.9 -9.6 3.2 -11.6 7 -10.6 2.5 0.6 2.5 0.6 0 9.9 -5.7 21.1 -6 21.8 -11.1 20.9z" style="fill: rgb(255, 255, 255);"/>
    <path d="M412.9 64.8 c-1 -1.9 -1.2 -20.3 -0.3 -26 0.7 -3.8 0.7 -3.8 9.4 -3.8 6.9 0 8.9 0.3 9.4 1.5 1.2 3.2 -0.5 4.4 -6.2 4.7 -5.4 0.3 -5.7 0.5 -6 3.1 -0.3 2.6 -0.2 2.7 4.7 2.7 4.2 0 5.1 0.3 5.6 2.1 0.9 2.9 -0.2 3.7 -5.5 4.1 -4.3 0.3 -4.5 0.5 -4.8 3.6 -0.3 3.2 -0.3 3.2 5.6 3.2 4.4 0 6.1 0.4 6.6 1.5 1.3 3.5 -0.4 4.3 -9.1 4.7 -7.2 0.2 -8.6 0 -9.4 -1.4z" style="fill: rgb(255, 255, 255);"/>
  </g>
</svg>