<?xml version="1.0" encoding="utf-8"?>
<svg viewBox="100 100 297.912 278.591" xmlns="http://www.w3.org/2000/svg">
  <g fill="#664ec9" transform="matrix(1, 0, 0, 1, 49.000004, 46.500004)"/>
  <g fill="#ffffff" transform="matrix(1, 0, 0, 1, 49.000004, 46.500004)">
    <path d="M190 332 c-12.25 -0.15 -22.25 -0.35 -22.25 -0.40 0 -0.05 0.10 -13.85 0.25 -30.65 0.15 -16.80 0.10 -30.75 -0.05 -31 -0.15 -0.25 -1.15 -0.60 -2.25 -0.75 -2.90 -0.40 -109.90 -0.35 -111.15 0.05 -0.70 0.20 -1.55 0.05 -2.30 -0.45 l-1.25 -0.80 0 -105.80 c0 -94.05 0.10 -105.90 0.75 -107.25 l0.80 -1.45 78.85 0.10 c43.35 0.05 79.25 0.25 79.75 0.50 0.80 0.40 0.85 1.80 0.85 18.90 0 10.95 -0.20 18.55 -0.45 18.75 -0.30 0.15 -25.65 0.25 -56.35 0.25 -40.30 0 -56.05 0.15 -56.55 0.55 -0.50 0.45 -0.65 4.90 -0.65 23.25 0 21.90 0.05 22.70 0.95 23.20 0.65 0.30 12.40 0.50 34.70 0.50 l33.70 0 0.35 -1.90 c0.15 -1 0.30 -5.75 0.30 -10.50 0 -5 0.20 -9.05 0.50 -9.65 0.50 -0.90 1.30 -0.95 22.65 -0.95 12.15 0 22.40 0.20 22.75 0.45 0.50 0.30 0.60 1.35 0.35 4.35 -0.50 6.20 -0.65 76.20 -0.20 75.90 0.25 -0.15 0.45 0.30 0.45 1 0 0.75 0.40 1.50 0.95 1.80 0.65 0.35 15.10 0.50 43.40 0.50 41 -0.05 42.45 -0.05 43.55 -1 l1.15 -0.95 -0.10 -40.90 -0.05 -40.90 22.25 -0.15 c18.30 -0.10 22.30 0 22.80 0.55 0.40 0.55 0.50 28.55 0.45 107.65 l-0.15 106.95 -22.75 0 -22.75 0 0.15 -45.35 c0.15 -39.95 0.10 -45.50 -0.55 -46.15 -0.45 -0.40 -1 -0.75 -1.30 -0.75 -0.30 0 -0.55 -0.15 -0.55 -0.35 0 -0.45 -82.85 -0.35 -84.15 0.10 -0.45 0.15 -1.20 0.35 -1.60 0.50 -0.65 0.20 -0.75 2.35 -0.75 15.50 0 9.85 -0.20 15.25 -0.50 15.25 -0.25 0 -0.50 0.25 -0.50 0.55 0 0.25 0.30 0.35 0.65 0.15 0.45 -0.30 0.45 -0.20 0.10 0.35 -0.50 0.65 -0.65 53.85 -0.15 58.40 0.10 1.30 -0.05 1.75 -0.85 2 -0.55 0.15 -11 0.20 -23.25 0.05z m-22.80 -129 l0 -26.75 -34.20 0 -34.25 0 -0.15 26.25 c-0.05 14.45 0 26.55 0.15 26.90 0.15 0.50 7.30 0.60 34.30 0.50 l34.10 -0.15 0.05 -26.75z" style=""/>
  </g>
</svg>