<?xml version="1.0" encoding="utf-8"?>
<!DOCTYPE svg PUBLIC "-//W3C//DTD SVG 1.0//EN" "http://www.w3.org/TR/2001/REC-SVG-20010904/DTD/svg10.dtd">
<svg version="1.0" xmlns="http://www.w3.org/2000/svg" width="578px" height="370px" viewBox="0 0 578 370" preserveAspectRatio="xMidYMid meet">
 <g fill="#ffffff">
  <path d="M136.5 362.9 c-55.4 -3.1 -98.3 -32.5 -115 -78.9 -4.9 -13.8 -6.6 -23.3 -7.2 -41.5 -0.6 -19.7 1 -32.9 5.9 -48.5 6.1 -19.3 14.9 -34.1 29.1 -48.7 18.9 -19.6 44 -32.2 73.1 -36.8 13.2 -2.1 37.7 -2.1 50.3 0.1 56.1 9.5 91.8 47 98.4 103.5 1.2 10.3 0.8 39.5 -0.6 43.2 -0.7 1.6 -5.9 1.7 -89.2 1.7 l-88.5 0 0.6 2.8 c0.4 1.5 2.2 5.9 4.1 9.8 6 12.4 16.9 21 31.5 25 10 2.7 32 2.5 42.3 -0.4 12.4 -3.5 24.3 -10.1 33.3 -18.4 l4.2 -3.9 27.6 21 27.5 20.9 -9.7 9.3 c-5.3 5.2 -13.1 11.7 -17.3 14.6 -21 14.4 -47.8 23.6 -72.7 24.9 -5.3 0.3 -11 0.6 -12.7 0.7 -1.6 0.2 -8.4 0 -15 -0.4z m54.9 -163.1 c-6.5 -18.6 -21.9 -27.8 -46.4 -27.8 -20.5 0 -36.5 8.2 -45.5 23.4 -1.9 3.3 -3.5 6.6 -3.5 7.3 0 1.1 9.2 1.3 48.5 1.3 l48.4 0 -1.5 -4.2z"/>
  <path d="M318 182.5 l0 -175.5 40 0 40 0 0.2 60.4 0.3 60.4 7.8 -4.8 c17.2 -10.6 36.8 -16 58.1 -16.1 17.5 0 28.1 2 42 7.8 28.5 11.9 47.3 40.6 51.5 78.6 0.7 6 1.1 38.6 1.1 87.2 l0 77.5 -40 0 -39.9 0 -0.3 -72.7 c-0.3 -72 -0.4 -72.9 -2.5 -79.3 -5.7 -16.7 -14.8 -23.8 -31.8 -24.7 -15 -0.8 -26.6 3.3 -39.9 14.3 l-6.6 5.4 0 78.5 0 78.5 -40 0 -40 0 0 -175.5z"/>
 </g>
</svg>