<?xml version="1.0" encoding="utf-8"?>
<svg viewBox="1.27 1.28 96.82 198.72" xmlns="http://www.w3.org/2000/svg" xmlns:xlink="http://www.w3.org/1999/xlink">
  <defs>
    <style>.cls-1{fill:url(#linear-gradient);}.cls-2{fill:url(#linear-gradient-2);}.cls-3{fill:url(#linear-gradient-3);}.cls-4{fill:url(#linear-gradient-4);}.cls-5{fill:#404040;}.cls-6{fill:url(#linear-gradient-5);}.cls-7{fill:url(#linear-gradient-6);}.cls-8{fill:url(#linear-gradient-7);}.cls-9{fill:url(#linear-gradient-8);}.cls-10{fill:url(#linear-gradient-9);}.cls-11{fill:url(#linear-gradient-10);}</style>
    <linearGradient id="linear-gradient-5" x1="93.58" y1="100.72" x2="97.11" y2="100.72" gradientUnits="userSpaceOnUse">
      <stop offset="0" stop-color="#f1f1f1"/>
      <stop offset="0" stop-color="#f0f0f0"/>
      <stop offset="0.14" stop-color="#b7b7b7"/>
      <stop offset="0.27" stop-color="#888"/>
      <stop offset="0.4" stop-color="#636363"/>
      <stop offset="0.51" stop-color="#494949"/>
      <stop offset="0.62" stop-color="#393939"/>
      <stop offset="0.7" stop-color="#333"/>
    </linearGradient>
    <linearGradient id="linear-gradient-6" x1="4.3" y1="193.63" x2="95.08" y2="193.63" gradientUnits="userSpaceOnUse">
      <stop offset="0"/>
      <stop offset="0.1" stop-color="#141414"/>
      <stop offset="0.26" stop-color="#2c2c2c"/>
      <stop offset="0.4" stop-color="#3b3b3b"/>
      <stop offset="0.52" stop-color="#404040"/>
      <stop offset="0.63" stop-color="#393939"/>
      <stop offset="0.79" stop-color="#242424"/>
      <stop offset="0.99" stop-color="#020202"/>
      <stop offset="1"/>
    </linearGradient>
    <linearGradient id="linear-gradient-7" x1="4.3" y1="7.82" x2="97.12" y2="7.82" xlink:href="#linear-gradient-6"/>
    <linearGradient id="linear-gradient-8" x1="2.28" y1="100.66" x2="4.37" y2="100.66" gradientUnits="userSpaceOnUse">
      <stop offset="0" stop-color="#404040"/>
      <stop offset="0.64" stop-color="#1a1a1a"/>
      <stop offset="1" stop-color="#0a0a0a"/>
    </linearGradient>
    <linearGradient id="linear-gradient-9" x1="93.56" y1="100.73" x2="97.11" y2="100.73" gradientUnits="userSpaceOnUse">
      <stop offset="0" stop-color="#0a0a0a"/>
      <stop offset="0.36" stop-color="#1a1a1a"/>
      <stop offset="1" stop-color="#404040"/>
    </linearGradient>
  </defs>
  <g id="Layer_2" data-name="Layer 2">
    <g id="object">
      <path class="cls-5" d="M86.76,1.28h0l-.62,0H13.25l-.62,0h0a12,12,0,0,0-11.36,12V188.09A12,12,0,0,0,12.3,200l.32,0H86.76l.33,0a12,12,0,0,0,11-11.94V13.24A12,12,0,0,0,86.76,1.28ZM97.11,188.09A11,11,0,0,1,87,199h-.31l-.57,0H13.25l-.58,0h-.3A11,11,0,0,1,2.28,188.09V13.24A11,11,0,0,1,12.65,2.29H86.72a11,11,0,0,1,10.39,11Z"/>
      <path class="cls-6" d="M97.11,13.31V188.16a10.72,10.72,0,0,1-1.44,5.39c-.08.15-.17.29-.26.44s-.27.42-.42.62a11.14,11.14,0,0,1-1.41,1.58,11.37,11.37,0,0,0,1.5-5.67v-2c0-.12,0-.24,0-.37V13.3c0-.13,0-.25,0-.37V11a11.44,11.44,0,0,0-1.5-5.71A11,11,0,0,1,97.11,13.31Z"/>
      <path d="M86.67,3.3h-74a10,10,0,0,0-9.39,9.94V188.09A10,10,0,0,0,12.46,198h.27l.52,0H86.14l.51,0h.29a10,10,0,0,0,9.16-9.93V13.24A10,10,0,0,0,86.67,3.3Zm6.77,184.79a7.28,7.28,0,0,1-1.51,4.44c-.05.07-.11.13-.16.19a6.77,6.77,0,0,1-.51.56c-.15.15-.32.31-.49.45h0c-.22.17-.44.34-.68.49a4.77,4.77,0,0,1-.73.42h0c-.12.07-.25.12-.38.18h0l-.4.15a5.91,5.91,0,0,1-.82.24,7.25,7.25,0,0,1-1,.16h-74a7.34,7.34,0,0,1-6.73-7.28V13.24A7.3,7.3,0,0,1,12.76,6H86.6l.22,0h.09l.19,0a1.81,1.81,0,0,1,.23,0h0l.33.06h.06l.26.07.38.11.31.1.32.13c.21.09.41.19.61.3a5.64,5.64,0,0,1,.53.31l.12.08.21.15a1.71,1.71,0,0,1,.26.21c.18.14.35.29.51.44l.23.24c.08.08.15.17.22.25a6.87,6.87,0,0,1,.78,1.1c.11.2.22.4.31.61a5.93,5.93,0,0,1,.26.63c0,.11.07.21.1.32s.13.48.18.73c0,.1,0,.19.05.29a7.45,7.45,0,0,1,.07,1.06Z"/>
      <path d="M25.44,9.31a1,1,0,0,1-.07-.15l0-.05A.88.88,0,0,0,25.44,9.31Z"/>
      <path d="M74,9.11s0,0,0,.05a1,1,0,0,1-.07.15Z"/>
      <path d="M30.33,12.69h0Z"/>
      <path d="M69.26,12.68h0Z"/>
      <path d="M25.26,8.89h0l0-.08Z"/>
      <path d="M25.44,9.31a1,1,0,0,1-.07-.15l0-.05A.88.88,0,0,0,25.44,9.31Z"/>
      <path d="M26.15,10.48l-.07-.09h0Z"/>
      <path d="M26.38,10.75a.28.28,0,0,1-.09-.1l-.05-.05h0Z"/>
      <path d="M26.48,10.87l-.06-.06h0Z"/>
      <path d="M27.16,11.49,27,11.38l-.09-.07-.06-.05.15.12Z"/>
      <path d="M27.25,11.55l.09.08,0,0Z"/>
      <path d="M27.66,11.83l-.1-.06h0l-.06,0Z"/>
      <path d="M28.74,12.36l-.22-.08,0,0Z"/>
      <path d="M29,12.45l.28.07-.19,0-.09,0-.12,0-.13-.05Z"/>
      <path d="M29.84,12.64l.24,0-.22,0h-.12l-.19,0-.24-.05,0,0A5.23,5.23,0,0,0,29.84,12.64Z"/>
      <path d="M30.33,12.69h0Z"/>
      <path d="M68.74,12.71h0Z"/>
      <path d="M69.05,12.69h0Z"/>
      <path d="M69.55,12.64a5.78,5.78,0,0,0,.57-.12l0,0-.24.05-.2,0h-.12l-.21,0Z"/>
      <path d="M70.64,12.36l-.12.05-.13,0-.09,0-.18,0,.27-.07Z"/>
      <path d="M70.64,12.36l.27-.1,0,0Z"/>
      <path d="M71.73,11.83l.17-.1-.06,0h0Z"/>
      <path d="M72.14,11.55l-.07.06,0,0Z"/>
      <path d="M72.5,11.26l-.06.05a.27.27,0,0,1-.08.07l-.14.11.14-.11Z"/>
      <path d="M73,10.81a.17.17,0,0,1-.06.06l.06-.06Z"/>
      <path d="M73.15,10.6l-.05.05,0,0,.08-.1Z"/>
      <path d="M73.31,10.39l-.07.09a.22.22,0,0,0,.05-.08Z"/>
      <path d="M74,9.11s0,0,0,.05a1,1,0,0,1-.07.15Z"/>
      <path d="M74.15,8.81l0,.08h0Z"/>
      <path class="cls-7" d="M95.08,188.51v2a11.37,11.37,0,0,1-1.5,5.67A10.94,10.94,0,0,1,87,199.08l-.31,0h-74l-.3,0L12,199a10.89,10.89,0,0,1-6.14-2.85A11.46,11.46,0,0,1,4.3,190.5v-2.36a9,9,0,0,0,3.15,6.8,8.87,8.87,0,0,0,5.09,2.12H86.87A9,9,0,0,0,95.08,188.51Z"/>
      <path class="cls-8" d="M97.11,13.31h0a11,11,0,0,0-10.39-11H12.66L12,2.41A10.92,10.92,0,0,0,5.81,5.23,11.48,11.48,0,0,0,4.3,10.94V13.3a9,9,0,0,1,8.42-8.93h73.9a8.94,8.94,0,0,1,8.46,8.57V11a11.44,11.44,0,0,0-1.5-5.71A11,11,0,0,1,97.11,13.31Z"/>
      <path class="cls-9" d="M5.82,196.14a11,11,0,0,1-3.54-8V13.24A10.91,10.91,0,0,1,5.81,5.18a11.44,11.44,0,0,0-1.51,5.7V190.45A11.36,11.36,0,0,0,5.82,196.14Z"/>
      <path class="cls-10" d="M97.11,13.31V188.16a10.72,10.72,0,0,1-1.44,5.39c-.08.15-.17.29-.26.44s-.27.42-.42.62a10.35,10.35,0,0,1-1.43,1.6l0,0a11.37,11.37,0,0,0,1.5-5.67V11a11.44,11.44,0,0,0-1.5-5.71A11,11,0,0,1,97.11,13.31Z"/>
    </g>
  </g>
</svg>