<?xml version="1.0" encoding="utf-8"?>
<!DOCTYPE svg PUBLIC "-//W3C//DTD SVG 20010904//EN" "http://www.w3.org/TR/2001/REC-SVG-20010904/DTD/svg10.dtd">
<svg version="1.0" xmlns="http://www.w3.org/2000/svg" width="1066px" height="927px" viewBox="0 0 1066 927" preserveAspectRatio="xMidYMid meet">
 <g fill="#fefefe">
  <path d="M57.3 646.3 c-1 -0.4 -1.3 -60.9 -1.3 -297.9 l0 -297.4 2.2 -0.5 c1.3 -0.3 216.1 -0.4 477.3 -0.3 l475 0.3 0.3 296.9 c0.1 218.6 -0.1 297.2 -0.9 298.2 -1 1.2 -77.8 1.4 -476.3 1.3 -261.3 0 -475.7 -0.3 -476.3 -0.6z"/>
 </g>
 <g fill="#e9e9e9">
  <path d="M55.2 647.8 c-1.9 -1.9 -1.7 -597.1 0.2 -598.7 1 -0.8 126.7 -1 479.2 -0.9 l477.9 0.3 0.3 298.9 c0.1 220.1 -0.1 299.2 -0.9 300.2 -1.6 1.9 -954.8 2.1 -956.7 0.2z m951.7 -5.2 c0.8 -1 1 -78.8 0.9 -295.2 l-0.3 -293.9 -472 -0.3 c-259.6 -0.1 -473 0 -474.3 0.3 l-2.2 0.5 0 294.4 c0 234.6 0.3 294.5 1.3 294.9 0.6 0.3 213.7 0.6 473.3 0.6 396 0.1 472.3 -0.1 473.3 -1.3z"/>
 </g>
 <g fill="#c5c5c6">
  <path d="M56.2 651 c-1.8 -0.4 -3.6 -1.1 -4 -1.5 -0.4 -0.4 -0.7 -135.8 -0.7 -301 0 -245.2 0.2 -300.6 1.3 -301.7 1.1 -1.1 88.9 -1.3 480.4 -1.6 446.1 -0.2 479.3 -0.1 481 1.5 1.8 1.6 1.8 11.3 1.6 301.4 -0.3 286.3 -0.4 299.9 -2.1 301.6 -1.7 1.7 -22.3 1.8 -478 2 -261.9 0 -477.7 -0.3 -479.5 -0.7z m952.7 -6.4 c0.8 -1 1 -79.3 0.9 -297.2 l-0.3 -295.9 -474.9 -0.3 c-350.3 -0.1 -475.2 0.1 -476.2 0.9 -1.9 1.6 -2.1 590.8 -0.2 592.7 1.9 1.9 949.1 1.7 950.7 -0.2z"/>
 </g>
 <g fill="#666769">
  <path d="M395.5 888.3 c-12.6 -1.6 -18.5 -4.4 -18.5 -8.8 0 -3.5 2.4 -5.8 17.5 -16.4 7.7 -5.4 14.5 -10.9 15.2 -12.2 0.7 -1.3 3.4 -7.8 6 -14.4 4.6 -11.4 4.8 -12.4 4.5 -20.5 -0.1 -4.7 0.9 -20 2.3 -34 4.6 -47.1 5.7 -73.1 3.3 -74.7 -0.7 -0.4 -90.2 -1 -198.8 -1.3 l-197.5 -0.5 -5 -2.3 c-6.5 -3 -9.8 -6.3 -12.7 -12.6 l-2.3 -5.1 -0.3 -311.7 c-0.2 -311.6 -0.2 -311.8 1.8 -311.8 2 0 2 0.3 2 307.8 0 169.2 0.3 309.4 0.6 311.5 0.4 2 2.1 6.1 3.8 8.9 2.5 4.2 4.3 5.9 9 8.3 l6 3 197.7 0.5 c192.6 0.5 197.7 0.5 199.8 2.4 1.5 1.4 2.1 3.2 2.2 6.5 0.1 7.9 1.5 14.3 3.5 15.8 1.6 1.2 12.9 1.3 68.4 0.8 109.3 -0.9 129 -1.3 130.6 -2.6 1.4 -1.1 1.9 -3.3 2.9 -13.2 0.5 -4 1.3 -6.4 2.6 -7.5 1.8 -1.6 16.8 -1.7 199.2 -2.2 l197.2 -0.5 5.4 -3 c6.5 -3.6 10.6 -8.9 12 -15.6 1.2 -5.5 1.3 -372 0.2 -553.9 l-0.6 -101.5 -2.7 -5.7 c-3.2 -6.8 -8.6 -11.2 -15.9 -12.7 -3.3 -0.7 -30.5 -1.1 -80.4 -1.1 -75.2 0 -75.5 0 -75.5 -2 0 -2.1 0.2 -2.1 80.3 -1.8 76 0.3 80.4 0.4 83.7 2.2 6.7 3.5 10.9 8.6 13.1 15.8 2 6.6 2 8.3 2.2 335.5 0.2 301.6 0.1 329.1 -1.4 332.4 -2.6 5.6 -7.4 10.4 -13.1 13 l-5.3 2.4 -196.7 0.5 c-150.7 0.4 -197 0.8 -197.9 1.7 -2.4 2.4 -0.1 47.9 4.2 82.8 1.4 11.1 1.9 19.5 1.5 24.2 -0.5 6.8 -0.3 8 3.9 19.5 6.8 18.7 6.5 18.2 20.5 28 18.1 12.8 21 16.7 15.7 21.6 -5.6 5.3 -2.7 5.2 -152.7 5.1 -76.2 -0.1 -139.8 -0.4 -141.5 -0.6z m272 -4.2 c10.6 -0.8 17.5 -2.8 17.5 -5.1 0 -1.8 -9.4 -8 -19.7 -13.1 -11 -5.4 -11.3 -5.7 -12.7 -15.6 -0.3 -2.3 -1.1 -5.4 -1.8 -6.8 -1.2 -2.6 -1.3 -2.7 -8.2 -2 -6.3 0.7 -209.8 0.9 -218.6 0.2 -3.1 -0.2 -3.7 0.2 -5.2 3.4 -1 1.9 -2.1 5.7 -2.4 8.5 -0.8 5.9 -3 8.6 -9.2 11 -2.6 0.9 -6.5 2.8 -8.7 4.2 -7.4 4.5 -14.5 9.5 -14.5 10.2 0 0.7 1.3 1.3 7.5 3.5 1.1 0.4 8.8 1.1 17 1.5 20.9 1 245.6 1.1 259 0.1z"/>
  <path d="M51.7 651.2 c-1.6 -1.7 -1.7 -24.2 -1.7 -302.9 0 -285.4 0.1 -301.1 1.8 -302.5 1.5 -1.4 49.4 -1.6 482.5 -1.9 479.9 -0.4 480.9 -0.4 482.4 1.6 1.4 1.8 1.5 19.7 0.9 169 -0.3 91.9 -0.6 227.2 -0.6 300.7 0 132.5 0 133.8 -2 135.8 -2 2 -3.3 2 -481.8 2 -463.6 0 -479.9 -0.1 -481.5 -1.8z m959 -4.5 c1.7 -1.7 1.8 -15.2 2.1 -298.6 0.2 -287.2 0.2 -296.8 -1.6 -298.4 -1.7 -1.6 -34.7 -1.7 -478 -1.5 -389 0.3 -476.3 0.5 -477.4 1.6 -1.1 1.1 -1.3 56 -1.3 298.7 0 163.5 0.3 297.6 0.7 298 0.4 0.4 2.2 1.1 4 1.5 1.8 0.4 216.2 0.7 476.5 0.7 452.9 -0.2 473.3 -0.3 475 -2z"/>
  <path d="M8.7 39.9 c-1.1 -4 1.2 -18.2 3.6 -22.9 2.6 -5.1 8.9 -10.3 14.5 -12.1 4.1 -1.3 57 -2.5 62.7 -1.5 2 0.4 3.5 1.3 3.5 2.1 0 1.1 -5.5 1.4 -30.2 1.7 l-30.3 0.3 -5.7 2.8 c-9.1 4.5 -12.8 10.8 -14.2 25 -0.5 4.5 -1.2 6.7 -2.1 6.7 -0.7 0 -1.5 -1 -1.8 -2.1z"/>
  <path d="M403 6 c0 -2 0.7 -2 110 -2 109.3 0 110 0 110 2 0 2 -0.7 2 -110 2 -109.3 0 -110 0 -110 -2z"/>
 </g>
 <g fill="#4e4f52">
  <path d="M406 887 c-15.3 -0.7 -21.4 -1.9 -25 -4.8 -1.6 -1.3 -2.1 -2.4 -1.6 -4 1.1 -3.2 15.6 -13.1 24.6 -16.6 5.9 -2.3 9 -5.3 9 -8.6 0 -4.2 2.8 -12.5 4.9 -14.4 1.7 -1.5 2.6 -1.6 8.2 -0.5 8.8 1.6 207.5 1.6 216.7 -0.1 3.5 -0.6 7.1 -0.8 8.1 -0.5 2.2 0.7 3.9 4.2 4.7 9.8 1.4 9.9 1.7 10.2 12.7 15.6 11.8 5.8 19.3 11.1 21 14.8 1 2.3 0.8 2.8 -1.6 4.9 -5.7 4.9 -2 4.8 -138.7 5 -70.7 0 -135 -0.2 -143 -0.6z m272 -6.1 c3.4 -1.5 3.2 -1.6 -7.1 -1.1 -12.8 0.5 -15.7 -0.5 -22.4 -8.3 -2.5 -3 -6.5 -6.3 -9.1 -7.5 l-4.6 -2.3 -100.1 0.1 c-73.4 0 -101 0.3 -103.1 1.1 -1.6 0.6 -6.5 4.6 -10.8 8.9 l-8 7.7 -11.8 0 c-14.9 0 -12.3 1.5 4.5 2.5 6.6 0.4 69.8 0.7 140.5 0.6 115 -0.1 128.9 -0.3 132 -1.7z"/>
  <path d="M432.6 729.7 c-2 -1.5 -3.4 -7.9 -3.5 -15.8 -0.1 -3.3 -0.7 -5.1 -2.2 -6.5 -2.1 -1.9 -7.2 -1.9 -199.8 -2.4 l-197.7 -0.5 -6 -3 c-4.7 -2.4 -6.5 -4.1 -9 -8.3 -1.7 -2.8 -3.4 -6.9 -3.8 -8.9 -0.3 -2.1 -0.6 -140.9 -0.6 -308.5 0 -304.1 0 -304.8 2 -304.8 2 0 2 0.7 2 304.3 0 215.6 0.3 305.3 1.1 308.1 1.9 6.7 5.7 11.3 11.8 14.3 l5.6 2.8 198.2 0.5 198.1 0.5 2.4 2.2 c1.3 1.2 3.5 2.6 5 3.2 1.7 0.6 35.8 0.8 100.5 0.4 l97.8 -0.6 3.4 -2.6 3.4 -2.6 197.6 -0.5 197.6 -0.5 5.2 -2.9 c6.1 -3.3 9.7 -8.1 11.4 -15 1.7 -6.8 0.5 -643 -1.2 -652.1 -2 -10.6 -6.8 -17 -15 -19.7 -3.9 -1.2 -0.2 -1.2 -239.6 -2.3 -146.5 -0.7 -180.3 -1.1 -180.3 -2.1 0 -0.7 1.7 -1.6 3.8 -2 6.1 -1.2 411.7 0.5 417.3 1.7 7.1 1.5 12.6 6 15.7 12.7 l2.7 5.7 0.5 87 c1.1 179.2 1.1 569.1 -0.1 574.4 -1.4 6.7 -5.4 12 -12 15.6 l-5.4 3 -197.2 0.5 c-182.4 0.5 -197.4 0.6 -199.2 2.2 -1.3 1.1 -2.1 3.5 -2.6 7.5 -1 10 -1.5 12.1 -3 13.3 -1.7 1.4 -10.2 1.6 -128.5 2.5 -62.3 0.5 -74.8 0.4 -76.4 -0.8z"/>
  <path d="M53 653.3 c-4.1 -1.5 -4 9.7 -4 -305 0 -300 0 -301.3 2 -303.3 2 -2 3.3 -2 371.8 -2 203.4 0 419.8 -0.3 480.9 -0.7 l111 -0.6 2.1 2.1 2.2 2.2 0 105.5 c0 104.8 0 105.5 -2 105.5 -2 0 -2 -0.7 -2 -103.3 0 -87.7 -0.2 -103.6 -1.4 -105.3 -1.4 -1.9 -7.2 -1.9 -479.3 -1.6 -430.6 0.4 -478 0.6 -479.6 2 -1.6 1.4 -1.7 17 -1.7 299.7 0 287.6 0.1 298.2 1.8 299.8 1.7 1.6 36.4 1.7 478.5 1.7 475.4 0 476.7 0 478.7 -2 2 -2 2 -3.3 2 -190.8 0 -103.8 0.3 -189.7 0.6 -190.9 0.4 -1.3 1.3 -2.3 2 -2.3 1.2 0 1.4 29.3 1.4 192.5 l0 192.6 -2.5 2.4 -2.4 2.5 -479.3 -0.1 c-263.6 0 -480 -0.3 -480.8 -0.6z"/>
  <path d="M9.4 64.4 c-1.1 -6.1 0.2 -37.4 1.9 -42.5 2.1 -6.8 6.1 -11.5 12.5 -14.6 l5.7 -2.8 186.5 -0.3 c102.6 -0.2 188 0 189.8 0.3 1.8 0.3 3.2 1.2 3.2 2 0 1.3 -25.1 1.5 -188.3 1.7 l-188.2 0.3 -4.5 2.1 c-2.5 1.2 -5.9 3.7 -7.7 5.5 -5.5 5.9 -6.5 10.2 -7.1 32.2 -0.3 15.4 -0.7 19.7 -1.8 19.7 -0.7 0 -1.6 -1.6 -2 -3.6z"/>
  <path d="M425 7 c0 -2 0.7 -2 86 -2 85.3 0 86 0 86 2 0 2 -0.7 2 -86 2 -85.3 0 -86 0 -86 -2z"/>
 </g>
 <g fill="#35383c">
  <path d="M402.5 885 c-12.4 -0.7 -19.5 -2.7 -19.5 -5.3 0 -3.1 2.6 -3.7 14.7 -3.4 l12.1 0.2 8 -7.7 c4.3 -4.3 9.2 -8.3 10.8 -8.9 2.2 -0.9 29.2 -1.2 106 -1.2 l103 -0.1 4.7 2.3 c2.7 1.3 6.7 4.6 9.2 7.6 6.7 7.8 9.6 8.9 21.9 8 7.7 -0.5 10.5 -0.3 11.9 0.7 2.6 1.9 1.3 4.3 -3.6 6.5 -4 1.7 -10.7 1.8 -135.7 1.9 -72.3 0.1 -136.9 -0.2 -143.5 -0.6z"/>
  <path d="M433 709.9 c-1.4 -0.6 -3.5 -2 -4.8 -3.2 l-2.4 -2.2 -198.1 -0.5 -198.2 -0.5 -5.6 -2.8 c-6.2 -3 -10 -7.7 -11.8 -14.3 -0.7 -2.6 -1.1 -110.2 -1.1 -332.4 -0.2 -301.1 0 -328.9 1.5 -333 2.1 -5.8 7.7 -11.5 13.4 -13.7 4.4 -1.7 26.5 -1.8 431.6 -1.8 460.9 0.1 558.6 0.3 573.9 1.6 8.6 0.6 10.5 1.1 14 3.6 5.1 3.6 8.1 8.9 9.5 16.7 1.7 9.4 2.9 651.5 1.2 658.2 -1.7 6.9 -5.3 11.7 -11.4 15 l-5.2 2.9 -197.6 0.5 -197.6 0.5 -3.4 2.6 -3.4 2.6 -101 0.6 c-64.9 0.3 -101.9 0.2 -103.5 -0.4z m203.8 -7.6 c3.5 -1.7 15.8 -1.8 201.7 -2.3 l198 -0.5 4.2 -2.2 c5.1 -2.7 9.6 -8.2 11.2 -13.2 2.3 -7.7 0.8 -532.3 -1.8 -626.1 -0.8 -31.3 -1.2 -33.4 -7.4 -39.8 -1.7 -1.8 -4.7 -3.7 -6.7 -4.3 -2.2 -0.6 -29.8 -1.2 -74 -1.5 -54.6 -0.4 -72.1 -0.8 -77.5 -1.9 -5.9 -1.2 -71.9 -1.3 -429.5 -1.2 -410.1 0.2 -422.6 0.3 -426.8 2.1 -5.3 2.3 -10.5 8.2 -12.2 13.8 -1 3.4 -1.2 68.9 -1.1 329.5 0.1 178.8 0.6 326.5 1 328 2.4 8.4 7.3 13.4 15.3 15.8 4.6 1.3 28.5 1.5 200.7 1.5 191.2 0.1 195.7 0.1 199.6 2 3.9 1.9 7.2 1.9 102.8 2 92 0 99 -0.1 102.5 -1.7z"/>
  <path d="M52.3 654 c-1.2 -0.5 -2.6 -1.8 -3.2 -2.9 -0.8 -1.4 -1.1 -91.9 -1.1 -303.1 l0 -301.1 2.5 -2.4 2.4 -2.5 406.3 0 c246.8 0 407.7 -0.4 409.8 -0.9 1.9 -0.6 35.4 -1.1 75.2 -1.3 l71.7 -0.3 2.8 2.8 2.8 2.7 0 14.8 c-0.1 31.7 -1.6 207.6 -2 223.2 -0.2 9.1 -0.4 95.4 -0.4 191.8 l-0.1 175.3 -2.5 2.4 -2.4 2.5 -479.8 -0.1 c-273.8 0 -480.7 -0.4 -482 -0.9z m960.1 -5.3 l2.3 -2.3 0.6 -298.1 c0.4 -163.9 0.4 -298.8 0.1 -299.7 -0.4 -0.9 -1.4 -2 -2.3 -2.5 -0.9 -0.4 -216.6 -0.5 -479.5 -0.3 -466.5 0.4 -477.9 0.5 -479.7 2.3 -1.9 1.9 -1.9 9.3 -1.9 300.2 0 311.6 -0.1 300.5 4 302 0.8 0.3 215.8 0.6 477.8 0.6 l476.3 0.1 2.3 -2.3z"/>
 </g>
 <g fill="#232329">
  <path d="M428.5 705 c-3.9 -1.9 -8.4 -1.9 -199.6 -2 -172.2 0 -196.1 -0.2 -200.7 -1.5 -8 -2.4 -12.9 -7.4 -15.3 -15.7 -0.4 -1.6 -0.9 -150.6 -1 -331.1 -0.1 -264.4 0.1 -329 1.1 -332.5 1.7 -5.6 6.9 -11.5 12.2 -13.8 4.2 -1.8 16.8 -1.9 429.8 -2.1 360.1 -0.2 426.6 0 432.5 1.2 5.4 1.1 22.9 1.5 77.5 1.9 45.1 0.3 71.8 0.9 74 1.5 6.8 2 12.2 9.7 13.4 19.1 0.9 6.9 1.5 45.4 2.1 129.5 0.3 42.4 0.7 93 1 112.5 0.3 19.5 0.5 120 0.5 223.3 0 140.2 -0.2 188.8 -1.1 191.7 -1.6 5.1 -6.1 10.5 -11.2 13.3 l-4.2 2.2 -198 0.5 c-185.9 0.5 -198.2 0.6 -201.7 2.3 -3.5 1.6 -10.6 1.7 -105.5 1.7 -98.5 -0.1 -101.9 -0.1 -105.8 -2z m207.5 -4.2 c2.7 -1 46.9 -1.4 202.1 -1.8 l198.6 -0.5 4.9 -3 c3.1 -2 5.8 -4.7 7.4 -7.5 l2.5 -4.5 0.3 -64 c0.4 -81.2 -1.6 -330.7 -2.8 -348.2 -0.5 -7.3 -1.2 -14.2 -1.5 -15.4 -0.7 -2.2 -11.4 -7.9 -14.8 -7.9 -1 0 -3.1 -0.7 -4.6 -1.5 -2.7 -1.4 -2.9 -1.3 -3.5 0.8 -2.4 8.5 -4.6 165.4 -4.6 329.9 0 51.1 -0.3 72.4 -1.1 74.2 -0.7 1.3 -2.3 2.9 -3.8 3.5 -1.8 0.8 -141.6 1 -483.4 0.9 l-480.9 -0.3 -1.9 -2.4 c-1.9 -2.3 -1.9 -8.5 -1.9 -304.1 0 -166 0.3 -302.6 0.6 -303.5 1.9 -4.8 -22.4 -4.5 411.6 -4.5 320.2 0 405.8 -0.3 407.7 -1.3 1.9 -0.9 3.8 -4.4 7.9 -14.6 3.7 -9.4 5 -13.6 4.2 -14.1 -0.7 -0.4 -191.4 -0.7 -423.9 -0.6 l-422.7 0.1 -4.9 2.6 c-6 3 -10.2 9.2 -11.3 16.5 -0.4 2.7 -0.5 151 -0.2 329.5 l0.5 324.6 3 4.8 c2.1 3.5 4.5 5.6 8 7.4 l4.9 2.6 198.6 0.5 c146.1 0.4 199.3 0.8 201.5 1.7 4.5 1.7 198.7 1.8 203.5 0.1z m377.5 -51.3 l2.5 -2.4 0 -176.8 c0 -97.2 0.3 -185.6 0.5 -196.3 0.2 -10.7 0.7 -60.4 1.1 -110.5 0.3 -50 0.7 -96.5 0.8 -103.2 0.1 -12.1 0.1 -12.3 -2.7 -15 l-2.8 -2.8 -69.1 0.4 c-38.1 0.2 -70.6 0.7 -72.2 1.2 -1.8 0.5 -181.5 0.9 -409.4 0.9 l-406.3 0 -2.4 2.5 -2.5 2.4 0 298.1 c0 209 0.3 298.7 1.1 300.1 0.6 1.1 2 2.4 3.2 2.9 1.3 0.5 206.9 0.9 479 0.9 l476.8 0.1 2.4 -2.5z"/>
 </g>
 <g fill="#0a090c">
  <path d="M429.5 703.7 c-2.2 -0.9 -55.4 -1.3 -201.5 -1.7 l-198.6 -0.5 -4.9 -2.6 c-3.5 -1.8 -5.9 -3.9 -8 -7.4 l-3 -4.8 -0.5 -327.6 c-0.3 -180.2 -0.2 -329.8 0.2 -332.5 1.1 -7.3 5.3 -13.5 11.3 -16.5 l4.9 -2.6 424.1 -0.2 c233.2 -0.1 425.4 0 427.2 0.3 1.7 0.2 3.3 1 3.6 1.7 0.3 0.7 -2.3 8.2 -5.7 16.7 -4.8 12 -6.8 15.8 -8.7 16.7 -1.9 1 -87.4 1.3 -407.7 1.3 -434 0 -409.7 -0.3 -411.6 4.5 -0.3 0.9 -0.6 136.1 -0.6 300.5 0 292.7 0 298.8 1.9 301.1 l1.9 2.4 477.9 0.3 c339.7 0.1 478.6 -0.1 480.4 -0.9 1.5 -0.6 3.1 -2.2 3.8 -3.5 0.8 -1.8 1.1 -23.1 1.1 -74.2 0 -165.1 2.2 -319.2 4.6 -330.5 0.8 -3.3 2.9 -3.5 8.4 -0.7 2.2 1.1 4.7 2 5.7 2 3.4 0 14.1 5.8 14.8 7.9 0.3 1.2 1 8.1 1.5 15.4 1.2 17.7 3.2 267.1 2.8 351.2 l-0.3 67 -2.5 4.5 c-1.6 2.8 -4.3 5.5 -7.4 7.5 l-4.9 3 -198.6 0.5 c-155.2 0.4 -199.4 0.8 -202.1 1.8 -4.8 1.7 -205 1.6 -209.5 -0.1z"/>
 </g>
</svg>