<?xml version="1.0" encoding="utf-8"?>
<svg viewBox="0 0 771.23 640.02" xmlns="http://www.w3.org/2000/svg">
  <defs>
    <style>.cls-1{mask:url(#mask);filter:url(#luminosity-noclip-3);}.cls-13,.cls-2,.cls-4{mix-blend-mode:multiply;}.cls-2{fill:url(#linear-gradient);}.cls-3{mask:url(#mask-2);filter:url(#luminosity-noclip-4);}.cls-4{fill:url(#linear-gradient-2);}.cls-5{isolation:isolate;}.cls-6{fill:url(#linear-gradient-3);}.cls-7{fill:url(#linear-gradient-4);}.cls-8{mask:url(#mask-3);}.cls-9{opacity:0.7;fill:url(#linear-gradient-5);}.cls-10{fill:#333;}.cls-11{fill:url(#linear-gradient-6);}.cls-12{mask:url(#mask-4);}.cls-13{fill:url(#linear-gradient-7);}.cls-14{fill:#777;}.cls-15{filter:url(#luminosity-noclip-2);}.cls-16{filter:url(#luminosity-noclip);}</style>
    <filter id="luminosity-noclip" x="269.38" y="-8512.01" width="232.47" height="32766" filterUnits="userSpaceOnUse" color-interpolation-filters="sRGB">
      <feFlood flood-color="#fff" result="bg"/>
      <feBlend in="SourceGraphic" in2="bg"/>
    </filter>
    <mask id="mask" x="269.38" y="-8512.01" width="232.47" height="32766" maskUnits="userSpaceOnUse">
      <g class="cls-16"/>
    </mask>
    <linearGradient id="linear-gradient" x1="385.61" y1="640.02" x2="385.61" y2="633.04" gradientUnits="userSpaceOnUse">
      <stop offset="0" stop-color="#fff"/>
      <stop offset="0.01" stop-color="#f6f6f6"/>
      <stop offset="0.05" stop-color="#c8c8c8"/>
      <stop offset="0.09" stop-color="#9d9d9d"/>
      <stop offset="0.14" stop-color="#777"/>
      <stop offset="0.2" stop-color="#575757"/>
      <stop offset="0.25" stop-color="#3b3b3b"/>
      <stop offset="0.32" stop-color="#252525"/>
      <stop offset="0.4" stop-color="#141414"/>
      <stop offset="0.49" stop-color="#090909"/>
      <stop offset="0.63" stop-color="#020202"/>
      <stop offset="1"/>
    </linearGradient>
    <filter id="luminosity-noclip-2" x="4.69" y="-8512.01" width="761.85" height="32766" filterUnits="userSpaceOnUse" color-interpolation-filters="sRGB">
      <feFlood flood-color="#fff" result="bg"/>
      <feBlend in="SourceGraphic" in2="bg"/>
    </filter>
    <mask id="mask-2" x="4.69" y="-8512.01" width="761.85" height="32766" maskUnits="userSpaceOnUse">
      <g class="cls-15"/>
    </mask>
    <linearGradient id="linear-gradient-2" x1="385.61" y1="532.26" x2="385.61" y2="525.98" gradientUnits="userSpaceOnUse">
      <stop offset="0" stop-color="#1a1a1a"/>
      <stop offset="0.55" stop-color="#0e0e0e"/>
      <stop offset="1"/>
    </linearGradient>
    <linearGradient id="linear-gradient-3" x1="269.38" y1="636.53" x2="501.85" y2="636.53" gradientUnits="userSpaceOnUse">
      <stop offset="0" stop-color="#343434"/>
      <stop offset="0.08" stop-color="#3e3e3e"/>
      <stop offset="0.16" stop-color="#4f4f4f"/>
      <stop offset="0.27" stop-color="#696969"/>
      <stop offset="0.39" stop-color="gray"/>
      <stop offset="0.65" stop-color="#7c7e7f"/>
      <stop offset="0.75" stop-color="#6b6c6d"/>
      <stop offset="0.96" stop-color="#3e3e3e"/>
      <stop offset="1" stop-color="#343434"/>
    </linearGradient>
    <linearGradient id="linear-gradient-4" x1="385.61" y1="637.12" x2="385.61" y2="525.89" gradientUnits="userSpaceOnUse">
      <stop offset="0" stop-color="#535353"/>
      <stop offset="0.16" stop-color="#585858"/>
      <stop offset="0.18" stop-color="#4e4e4e"/>
      <stop offset="0.24" stop-color="#373737"/>
      <stop offset="0.28" stop-color="#414141"/>
      <stop offset="0.34" stop-color="#5c5c5c"/>
      <stop offset="0.39" stop-color="#777"/>
      <stop offset="0.65" stop-color="#696a6c"/>
      <stop offset="0.76" stop-color="#58595a"/>
      <stop offset="0.99" stop-color="#2b2b2b"/>
      <stop offset="1" stop-color="#2a2a2a"/>
    </linearGradient>
    <filter id="luminosity-noclip-3" x="269.38" y="633.04" width="232.47" height="6.98" filterUnits="userSpaceOnUse" color-interpolation-filters="sRGB">
      <feFlood flood-color="#fff" result="bg"/>
      <feBlend in="SourceGraphic" in2="bg"/>
    </filter>
    <mask id="mask-3" x="269.38" y="633.04" width="232.47" height="6.98" maskUnits="userSpaceOnUse">
      <g class="cls-1">
        <path class="cls-2" d="M270.75,633h-1.37v3.05a4,4,0,0,0,4.06,3.93H497.79a4,4,0,0,0,4.06-3.93V633Z"/>
      </g>
    </mask>
    <linearGradient id="linear-gradient-5" x1="385.61" y1="640.02" x2="385.61" y2="633.04" gradientUnits="userSpaceOnUse">
      <stop offset="0" stop-color="#343434"/>
      <stop offset="0.04" stop-color="#393939"/>
      <stop offset="0.19" stop-color="#444"/>
      <stop offset="0.41" stop-color="#4b4b4b"/>
      <stop offset="1" stop-color="#4d4d4d"/>
    </linearGradient>
    <linearGradient id="linear-gradient-6" y1="496.69" x2="771.23" y2="496.69" gradientUnits="userSpaceOnUse">
      <stop offset="0" stop-color="#4b4b4d"/>
      <stop offset="1" stop-color="#707070"/>
    </linearGradient>
    <filter id="luminosity-noclip-4" x="4.69" y="525.98" width="761.85" height="6.28" filterUnits="userSpaceOnUse" color-interpolation-filters="sRGB">
      <feFlood flood-color="#fff" result="bg"/>
      <feBlend in="SourceGraphic" in2="bg"/>
    </filter>
    <mask id="mask-4" x="4.69" y="525.98" width="761.85" height="6.28" maskUnits="userSpaceOnUse">
      <g class="cls-3">
        <path class="cls-4" d="M766.54,526a18.6,18.6,0,0,1-14,6.28H18.64A18.58,18.58,0,0,1,4.69,526Z"/>
      </g>
    </mask>
    <linearGradient id="linear-gradient-7" x1="385.61" y1="532.26" x2="385.61" y2="525.98" gradientUnits="userSpaceOnUse">
      <stop offset="0"/>
      <stop offset="0.09" stop-color="#0c0c0c"/>
      <stop offset="0.25" stop-color="#2d2d2d"/>
      <stop offset="0.47" stop-color="#636363"/>
      <stop offset="0.73" stop-color="#adadad"/>
      <stop offset="1" stop-color="#fff"/>
    </linearGradient>
  </defs>
  <rect width="771.23" height="27.134" style="" rx="13.567" ry="13.567"/>
  <g class="cls-5">
    <g id="Layer_2" data-name="Layer 2" transform="matrix(1, 0, 0, 1, 0.264829, 0.024983)">
      <g id="object">
        <path class="cls-6" d="M270.75,633h-1.37v3.05a4,4,0,0,0,4.06,3.93H497.79a4,4,0,0,0,4.06-3.93V633Z"/>
        <path class="cls-7" d="M497.79,637.12H273.44a4,4,0,0,1-2.35-7.26l22.51-15.79a17.62,17.62,0,0,0,7.45-12.7l7.35-75.48H462.83l7.35,75.48a17.61,17.61,0,0,0,7.44,12.7l22.52,15.79A4,4,0,0,1,497.79,637.12Z"/>
        <g class="cls-8">
          <path class="cls-9" d="M270.75,633h-1.37v3.05a4,4,0,0,0,4.06,3.93H497.79a4,4,0,0,0,4.06-3.93V633Z"/>
        </g>
        <rect width="33.017" height="499.995" style="" transform="matrix(1, 0.000983, -0.000983, 1, -0.264829, -0.024983)" rx="16.263" ry="16.263"/>
        <rect width="28.799" height="499.995" style="" rx="14.399" ry="14.399" transform="matrix(1, 0.000983, -0.000983, 1, 742.430969, 0.021876)"/>
        <path class="cls-11" d="M771.23,461.12v52.51a18.65,18.65,0,0,1-18.65,18.63H18.64A18.65,18.65,0,0,1,0,513.63V461.12Z"/>
        <g class="cls-12">
          <path class="cls-13" d="M766.54,526a18.6,18.6,0,0,1-14,6.28H18.64A18.58,18.58,0,0,1,4.69,526Z"/>
        </g>
        <rect class="cls-14" y="461.12" width="771.23" height="2.32"/>
      </g>
    </g>
  </g>
</svg>