<svg xmlns="http://www.w3.org/2000/svg" xmlns:xlink="http://www.w3.org/1999/xlink" viewBox="0 0 99.39 201.33"><defs><style>.cls-1{fill:url(#linear-gradient);}.cls-2{fill:url(#linear-gradient-2);}.cls-3{fill:url(#linear-gradient-3);}.cls-4{fill:url(#linear-gradient-4);}.cls-5{fill:#404040;}.cls-6{fill:url(#linear-gradient-5);}.cls-7{fill:url(#linear-gradient-6);}.cls-8{fill:url(#linear-gradient-7);}.cls-9{fill:url(#linear-gradient-8);}.cls-10{fill:url(#linear-gradient-9);}.cls-11{fill:url(#linear-gradient-10);}</style><linearGradient id="linear-gradient" y1="100.64" x2="1.47" y2="100.64" gradientUnits="userSpaceOnUse"><stop offset="0" stop-color="#666"/><stop offset="0.06" stop-color="#727272"/><stop offset="0.33" stop-color="#a8a8a8"/><stop offset="0.57" stop-color="#d0d0d0"/><stop offset="0.76" stop-color="#e8e8e8"/><stop offset="0.87" stop-color="#f1f1f1"/><stop offset="0.95" stop-color="#f7f7f7"/><stop offset="1" stop-color="#fff"/></linearGradient><linearGradient id="linear-gradient-2" x1="98.15" y1="100.65" x2="99.61" y2="100.65" gradientUnits="userSpaceOnUse"><stop offset="0" stop-color="#fff"/><stop offset="0.05" stop-color="#f7f7f7"/><stop offset="0.13" stop-color="#f1f1f1"/><stop offset="0.24" stop-color="#e8e8e8"/><stop offset="0.43" stop-color="#d0d0d0"/><stop offset="0.67" stop-color="#a8a8a8"/><stop offset="0.94" stop-color="#727272"/><stop offset="1" stop-color="#666"/></linearGradient><linearGradient id="linear-gradient-3" x1="49.69" y1="201.33" x2="49.69" y2="189.71" gradientUnits="userSpaceOnUse"><stop offset="0" stop-color="#f1f1f1"/><stop offset="0.12" stop-color="#e3e3e3"/><stop offset="0.34" stop-color="#bfbfbf"/><stop offset="0.63" stop-color="#848484"/><stop offset="1" stop-color="#333"/></linearGradient><linearGradient id="linear-gradient-4" x1="49.69" y1="11.09" x2="49.69" y2="-3.41" gradientUnits="userSpaceOnUse"><stop offset="0" stop-color="#333"/><stop offset="0.07" stop-color="#4c4c4c"/><stop offset="0.25" stop-color="#828282"/><stop offset="0.42" stop-color="#afafaf"/><stop offset="0.59" stop-color="#d2d2d2"/><stop offset="0.74" stop-color="#ebebeb"/><stop offset="0.89" stop-color="#fafafa"/><stop offset="1" stop-color="#fff"/></linearGradient><linearGradient id="linear-gradient-5" x1="93.58" y1="100.72" x2="97.11" y2="100.72" gradientUnits="userSpaceOnUse"><stop offset="0" stop-color="#f1f1f1"/><stop offset="0" stop-color="#f0f0f0"/><stop offset="0.14" stop-color="#b7b7b7"/><stop offset="0.27" stop-color="#888"/><stop offset="0.4" stop-color="#636363"/><stop offset="0.51" stop-color="#494949"/><stop offset="0.62" stop-color="#393939"/><stop offset="0.7" stop-color="#333"/></linearGradient><linearGradient id="linear-gradient-6" x1="4.3" y1="193.63" x2="95.08" y2="193.63" gradientUnits="userSpaceOnUse"><stop offset="0"/><stop offset="0.1" stop-color="#141414"/><stop offset="0.26" stop-color="#2c2c2c"/><stop offset="0.4" stop-color="#3b3b3b"/><stop offset="0.52" stop-color="#404040"/><stop offset="0.63" stop-color="#393939"/><stop offset="0.79" stop-color="#242424"/><stop offset="0.99" stop-color="#020202"/><stop offset="1"/></linearGradient><linearGradient id="linear-gradient-7" x1="4.3" y1="7.82" x2="97.12" y2="7.82" xlink:href="#linear-gradient-6"/><linearGradient id="linear-gradient-8" x1="2.28" y1="100.66" x2="4.37" y2="100.66" gradientUnits="userSpaceOnUse"><stop offset="0" stop-color="#404040"/><stop offset="0.64" stop-color="#1a1a1a"/><stop offset="1" stop-color="#0a0a0a"/></linearGradient><linearGradient id="linear-gradient-9" x1="93.56" y1="100.73" x2="97.11" y2="100.73" gradientUnits="userSpaceOnUse"><stop offset="0" stop-color="#0a0a0a"/><stop offset="0.36" stop-color="#1a1a1a"/><stop offset="1" stop-color="#404040"/></linearGradient><linearGradient id="linear-gradient-10" x1="43.57" y1="7.34" x2="55.2" y2="7.34" gradientUnits="userSpaceOnUse"><stop offset="0" stop-color="#333"/><stop offset="0.09" stop-color="#2b2b2b"/><stop offset="0.29" stop-color="#1e1e1e"/><stop offset="0.48" stop-color="#1a1a1a"/><stop offset="0.79" stop-color="#1c1c1c"/><stop offset="0.9" stop-color="#232323"/><stop offset="0.98" stop-color="#2e2e2e"/><stop offset="1" stop-color="#333"/></linearGradient></defs><g id="Layer_2" data-name="Layer 2"><g id="object"><path class="cls-1" d="M12,200l-.31,0h0a6.17,6.17,0,0,1-.62-.09,13.38,13.38,0,0,1-3.55-1.13l-.23-.12-.59-.31a2.26,2.26,0,0,0-.26-.16,13.2,13.2,0,0,1-1.25-.86l-.22-.17-.62-.53-.19-.19-.22-.21L3.68,196l-.14-.15-.17-.19a13.76,13.76,0,0,1-1-1.19l-.15-.22c-.16-.23-.31-.47-.45-.71s-.11-.18-.15-.27a13.13,13.13,0,0,1-.93-2.06c0-.1-.07-.2-.1-.29a13.56,13.56,0,0,1-.39-1.52l-.06-.31A13.82,13.82,0,0,1,0,186.83V14.51A13.26,13.26,0,0,1,12.62,1.28a12,12,0,0,0-11.36,12V188.09A12,12,0,0,0,12,200Z"/><path class="cls-2" d="M99.39,14.51V186.83a13.38,13.38,0,0,1-.64,4.07c0,.09-.07.19-.1.29s-.07.19-.11.29a2,2,0,0,1-.08.22l-.27.63-.14.28c-.06.13-.12.26-.19.38s-.09.17-.14.26l-.15.26q-.21.38-.45.72c-.05.07-.1.15-.16.22a2.27,2.27,0,0,1-.18.25c0,.08-.12.16-.18.24l-.19.24-.19.23-.41.46c-.21.22-.43.45-.66.66l-.21.19-.48.41-.22.17c-.24.19-.49.37-.74.53l-.26.17-.52.32-.27.14a8.86,8.86,0,0,1-.87.44l-.24.1a2.36,2.36,0,0,1-.28.12l-.29.11-.65.23-.23.07c-.29.09-.59.16-.88.23l-.32.06a1.91,1.91,0,0,1-.33.06l-.62.09h0l-.32,0a12,12,0,0,0,10.71-11.92V13.24a12,12,0,0,0-11-11.94A13.26,13.26,0,0,1,99.39,14.51Z"/><path class="cls-3" d="M99.39,186.83v1.26a13.26,13.26,0,0,1-13.25,13.24H13.25A13.26,13.26,0,0,1,0,188.09v-1.26a13.82,13.82,0,0,0,.19,2.24l.06.31a13.56,13.56,0,0,0,.39,1.52c0,.09.06.19.1.29a13.13,13.13,0,0,0,.93,2.06c0,.09.1.18.15.27s.29.48.45.71l.15.22a13.76,13.76,0,0,0,1,1.19l.17.19.14.15.22.22.22.21.19.19.62.53.22.17a13.2,13.2,0,0,0,1.25.86,2.26,2.26,0,0,1,.26.16l.59.31.23.12A13.38,13.38,0,0,0,11,199.88a6.17,6.17,0,0,0,.62.09h0c.21,0,.42.05.64.06l.32,0H86.76l.33,0,.52,0,.12,0h0c.21,0,.41-.05.62-.09a1.91,1.91,0,0,0,.33-.06l.32-.06c.29-.07.59-.14.88-.23l.23-.07.65-.23.29-.11a2.36,2.36,0,0,0,.28-.12l.24-.1a8.86,8.86,0,0,0,.87-.44l.27-.14.52-.32.26-.17c.25-.16.5-.34.74-.53l.22-.17.48-.41.21-.19c.23-.21.45-.44.66-.66s.28-.3.41-.46l.19-.23.19-.24a1.88,1.88,0,0,0,.18-.24,1.44,1.44,0,0,0,.18-.25c.06-.07.11-.15.16-.22q.24-.34.45-.72l.15-.26c0-.09.1-.17.14-.26s.13-.25.19-.38l.14-.28.27-.63a2,2,0,0,0,.08-.22c0-.1.08-.19.11-.29s.07-.2.1-.29A13.38,13.38,0,0,0,99.39,186.83Z"/><path class="cls-4" d="M99.39,13.24v1.27a13.26,13.26,0,0,0-12-13.18l-.32,0-.33,0h0l-.62,0H13.25l-.62,0h0A13.26,13.26,0,0,0,0,14.51V13.24c0-.13,0-.26,0-.39s0-.19,0-.29,0-.42.05-.63l0-.32a1.11,1.11,0,0,0,0-.17l0-.21.06-.33c0-.19.07-.37.11-.56a2.68,2.68,0,0,1,.07-.27c.06-.28.14-.55.22-.82L.7,9c0-.1.07-.21.11-.31L.9,8.44,1,8.23A2.6,2.6,0,0,1,1.09,8l.08-.18c0-.09.08-.18.13-.27a5.21,5.21,0,0,1,.24-.47l.12-.23c.05-.1.11-.19.16-.27A12.13,12.13,0,0,1,3.07,4.78l.19-.23.24-.26c.13-.15.26-.28.4-.42l.44-.43L4.81,3l.24-.2.5-.37.51-.35.53-.32.27-.15.27-.15.28-.14.28-.14L8.27,1,8.55.86h0l.28-.1.28-.1.33-.1.3-.08.31-.08.31-.08L11,.19l.32,0L12,.06l.56,0,.34,0H86.48l.29,0,.64,0h0l.33,0,.32,0,.32,0,.31.06h0L89,.31l.28.07h.06l.26.07L90,.57l.25.08.55.19.36.14.27.11.28.13a2.44,2.44,0,0,1,.28.14,11.81,11.81,0,0,1,1.9,1.14l.22.16c.26.19.51.4.76.61l.32.29a11.86,11.86,0,0,1,1.19,1.27l.2.24.38.51.18.26.3.46.14.24c.09.15.17.3.25.45l.12.22c.13.26.26.52.37.78l.09.21c.11.26.21.53.3.8,0,.1.07.2.1.3a13.31,13.31,0,0,1,.42,1.79l0,.2c0,.1,0,.21.05.32l0,.32,0,.33q0,.28,0,.6C99.38,13,99.39,13.11,99.39,13.24Z"/><path class="cls-5" d="M86.76,1.28h0l-.62,0H13.25l-.62,0h0a12,12,0,0,0-11.36,12V188.09A12,12,0,0,0,12.3,200l.32,0H86.76l.33,0a12,12,0,0,0,11-11.94V13.24A12,12,0,0,0,86.76,1.28ZM97.11,188.09A11,11,0,0,1,87,199h-.31l-.57,0H13.25l-.58,0h-.3A11,11,0,0,1,2.28,188.09V13.24A11,11,0,0,1,12.65,2.29H86.72a11,11,0,0,1,10.39,11Z"/><path class="cls-6" d="M97.11,13.31V188.16a10.72,10.72,0,0,1-1.44,5.39c-.08.15-.17.29-.26.44s-.27.42-.42.62a11.14,11.14,0,0,1-1.41,1.58,11.37,11.37,0,0,0,1.5-5.67v-2c0-.12,0-.24,0-.37V13.3c0-.13,0-.25,0-.37V11a11.44,11.44,0,0,0-1.5-5.71A11,11,0,0,1,97.11,13.31Z"/><path d="M86.67,3.3h-74a10,10,0,0,0-9.39,9.94V188.09A10,10,0,0,0,12.46,198h.27l.52,0H86.14l.51,0h.29a10,10,0,0,0,9.16-9.93V13.24A10,10,0,0,0,86.67,3.3Zm6.77,184.79a7.28,7.28,0,0,1-1.51,4.44c-.05.07-.11.13-.16.19a6.77,6.77,0,0,1-.51.56c-.15.15-.32.31-.49.45h0c-.22.17-.44.34-.68.49a4.77,4.77,0,0,1-.73.42h0c-.12.07-.25.12-.38.18h0l-.4.15a5.91,5.91,0,0,1-.82.24,7.25,7.25,0,0,1-1,.16h-74a7.34,7.34,0,0,1-6.73-7.28V13.24A7.3,7.3,0,0,1,12.76,6H86.6l.22,0h.09l.19,0a1.81,1.81,0,0,1,.23,0h0l.33.06h.06l.26.07.38.11.31.1.32.13c.21.09.41.19.61.3a5.64,5.64,0,0,1,.53.31l.12.08.21.15a1.71,1.71,0,0,1,.26.21c.18.14.35.29.51.44l.23.24c.08.08.15.17.22.25a6.87,6.87,0,0,1,.78,1.1c.11.2.22.4.31.61a5.93,5.93,0,0,1,.26.63c0,.11.07.21.1.32s.13.48.18.73c0,.1,0,.19.05.29a7.45,7.45,0,0,1,.07,1.06Z"/><path d="M25.44,9.31a1,1,0,0,1-.07-.15l0-.05A.88.88,0,0,0,25.44,9.31Z"/><path d="M74,9.11s0,0,0,.05a1,1,0,0,1-.07.15Z"/><path d="M75.62,5.94A1.23,1.23,0,0,0,74.47,7v.16a4.93,4.93,0,0,1-.07.66c0,.07,0,.15,0,.22h0l-.06.26a2.17,2.17,0,0,1-.07.24s0,0,0,0a.14.14,0,0,1,0,.06.09.09,0,0,1,0,.05l0,.08,0,.08a1.43,1.43,0,0,1-.08.22l-.09.2v0h0a.89.89,0,0,1-.08.17,1.09,1.09,0,0,1-.08.15.08.08,0,0,1,0,0l0,.08-.06.09,0,0,0,0a.21.21,0,0,1,0,.06.18.18,0,0,1,0,.07l0,.07,0,0,0,.07,0,.05a.18.18,0,0,1-.05.07v0h0a.22.22,0,0,1-.05.08l0,0-.06.09h0l-.08.1-.09.1h0l-.06.06-.06.07-.07.06a1.36,1.36,0,0,1-.12.12l-.09.09-.06,0-.14.12-.14.11-.08.06-.1.08h0l-.1.06s0,0,0,0l-.17.1-.13.08a1,1,0,0,1-.17.1l-.06,0h0l-.12.06-.11.06-.11,0-.05,0,0,0h0l-.27.1-.25.09-.27.07a5.78,5.78,0,0,1-.57.12l-.24,0H30.08l-.24,0a5.23,5.23,0,0,1-.57-.12L29,12.45l-.25-.09-.26-.1h0l0,0-.06,0-.1,0-.11-.06L28,12.05a0,0,0,0,1,0,0L28,12l-.16-.1a.57.57,0,0,1-.13-.08l-.17-.1,0,0-.1-.06h0l-.09-.08-.09-.06L27,11.38l-.15-.12s0,0-.05,0l-.1-.09L26.61,11l-.06-.06-.07-.07-.05-.06h0a.21.21,0,0,1,0-.06l-.14-.15h0l-.07-.09,0,0-.06-.08h0v0L26,10.3l0-.05-.05-.07,0,0a.43.43,0,0,0,0-.07.16.16,0,0,1,0-.07l0-.06,0,0v0l-.06-.09a.3.3,0,0,1,0-.08l0,0-.07-.15-.09-.17h0a0,0,0,0,1,0,0,.88.88,0,0,1-.09-.2l-.09-.22,0-.08,0-.08s0,0,0-.05a.42.42,0,0,1,0-.06l0,0-.06-.24L25,8.07h0a1.7,1.7,0,0,1,0-.22,4.93,4.93,0,0,1-.07-.66c0-.05,0-.1,0-.16a1.23,1.23,0,0,0-1.15-1.09Z"/><path d="M30.33,12.69h0Z"/><path d="M69.26,12.68h0Z"/><path d="M25.26,8.89h0l0-.08Z"/><path d="M25.44,9.31a1,1,0,0,1-.07-.15l0-.05A.88.88,0,0,0,25.44,9.31Z"/><path d="M26.15,10.48l-.07-.09h0Z"/><path d="M26.38,10.75a.28.28,0,0,1-.09-.1l-.05-.05h0Z"/><path d="M26.48,10.87l-.06-.06h0Z"/><path d="M27.16,11.49,27,11.38l-.09-.07-.06-.05.15.12Z"/><path d="M27.25,11.55l.09.08,0,0Z"/><path d="M27.66,11.83l-.1-.06h0l-.06,0Z"/><path d="M28.74,12.36l-.22-.08,0,0Z"/><path d="M29,12.45l.28.07-.19,0-.09,0-.12,0-.13-.05Z"/><path d="M29.84,12.64l.24,0-.22,0h-.12l-.19,0-.24-.05,0,0A5.23,5.23,0,0,0,29.84,12.64Z"/><path d="M30.33,12.69h0Z"/><path d="M68.74,12.71h0Z"/><path d="M69.05,12.69h0Z"/><path d="M69.55,12.64a5.78,5.78,0,0,0,.57-.12l0,0-.24.05-.2,0h-.12l-.21,0Z"/><path d="M70.64,12.36l-.12.05-.13,0-.09,0-.18,0,.27-.07Z"/><path d="M70.64,12.36l.27-.1,0,0Z"/><path d="M71.73,11.83l.17-.1-.06,0h0Z"/><path d="M72.14,11.55l-.07.06,0,0Z"/><path d="M72.5,11.26l-.06.05a.27.27,0,0,1-.08.07l-.14.11.14-.11Z"/><path d="M73,10.81a.17.17,0,0,1-.06.06l.06-.06Z"/><path d="M73.15,10.6l-.05.05,0,0,.08-.1Z"/><path d="M73.31,10.39l-.07.09a.22.22,0,0,0,.05-.08Z"/><path d="M74,9.11s0,0,0,.05a1,1,0,0,1-.07.15Z"/><path d="M74.15,8.81l0,.08h0Z"/><path class="cls-7" d="M95.08,188.51v2a11.37,11.37,0,0,1-1.5,5.67A10.94,10.94,0,0,1,87,199.08l-.31,0h-74l-.3,0L12,199a10.89,10.89,0,0,1-6.14-2.85A11.46,11.46,0,0,1,4.3,190.5v-2.36a9,9,0,0,0,3.15,6.8,8.87,8.87,0,0,0,5.09,2.12H86.87A9,9,0,0,0,95.08,188.51Z"/><path class="cls-8" d="M97.11,13.31h0a11,11,0,0,0-10.39-11H12.66L12,2.41A10.92,10.92,0,0,0,5.81,5.23,11.48,11.48,0,0,0,4.3,10.94V13.3a9,9,0,0,1,8.42-8.93h73.9a8.94,8.94,0,0,1,8.46,8.57V11a11.44,11.44,0,0,0-1.5-5.71A11,11,0,0,1,97.11,13.31Z"/><path class="cls-9" d="M5.82,196.14a11,11,0,0,1-3.54-8V13.24A10.91,10.91,0,0,1,5.81,5.18a11.44,11.44,0,0,0-1.51,5.7V190.45A11.36,11.36,0,0,0,5.82,196.14Z"/><path class="cls-10" d="M97.11,13.31V188.16a10.72,10.72,0,0,1-1.44,5.39c-.08.15-.17.29-.26.44s-.27.42-.42.62a10.35,10.35,0,0,1-1.43,1.6l0,0a11.37,11.37,0,0,0,1.5-5.67V11a11.44,11.44,0,0,0-1.5-5.71A11,11,0,0,1,97.11,13.31Z"/><rect class="cls-11" x="43.57" y="6.73" width="11.63" height="1.22" rx="0.33"/></g></g></svg>