<?xml version="1.0" encoding="utf-8"?>
<!-- Generator: Adobe Illustrator 24.1.2, SVG Export Plug-In . SVG Version: 6.00 Build 0)  -->
<svg version="1.1" id="Layer_1" xmlns="http://www.w3.org/2000/svg" xmlns:xlink="http://www.w3.org/1999/xlink" x="0px" y="0px"
	 viewBox="0 0 1600 300" style="enable-background:new 0 0 1600 300;" xml:space="preserve">
<style type="text/css">
	.st0{fill:#94D8EB;}
	.st1{fill:#699ECA;}
</style>
<g>
	<g>
		<path class="st0" d="M308.8,49.9c-26.5-26.4-69.7-26.4-96.2,0l-36.2,36.2l96.2,96.2l36.2-36.2c13.2-13.3,19.8-30.7,19.8-48
			C328.6,80.6,322,63.1,308.8,49.9z"/>
		<path class="st1" d="M176.4,86.1l-36.2-36.2c-26.5-26.4-69.7-26.4-96.2,0C30.8,63.1,24.2,80.6,24.2,98s6.6,34.8,19.8,48l36.2,36.2
			l72.4,72.4c13.1,13.1,34.4,13.1,47.6,0l72.4-72.3L176.4,86.1z"/>
	</g>
	<g>
		<path class="st1" d="M473.2,209.6c-12.9,0-15.4-9.2-15.4-25v-56.9c0-1,0.8-1.9,1.9-1.9h32.6c1,0,1.9-0.8,1.9-1.9v-21.5
			c0-1-0.8-1.9-1.9-1.9h-32.6c-1,0-1.9-0.8-1.9-1.9V60.2c0-1.2-1.1-2.1-2.2-1.9L423.7,64c-0.9,0.2-1.6,0.9-1.6,1.9v32.7
			c0,0.9-0.7,1.7-1.6,1.9l-20.9,2.9c-0.9,0.1-1.6,0.9-1.6,1.9v18.6c0,1,0.8,1.9,1.9,1.9h20.4c1,0,1.9,0.8,1.9,1.9v59.5
			c0,33.9,11.3,49,36.8,49c13.8,0,27.1-4.6,40.7-14c0.8-0.5,1-1.5,0.6-2.4l-6.6-13.9c-0.4-0.9-1.5-1.3-2.5-0.9
			C486.5,207,478.9,209.6,473.2,209.6z"/>
		<path class="st1" d="M608.8,94.1c-16.5,0-34.7,19.8-34.9,20l-2.4,2.6l-2.4-18.3c-0.1-1-1-1.7-1.9-1.6l-47.9,1.1
			c-1,0-1.8,0.9-1.8,1.9v14.7c0,0.8,0.5,1.6,1.3,1.8l18.1,5.7c0.8,0.2,1.3,1,1.3,1.8v84c0,0.8-0.5,1.6-1.3,1.8l-18.1,5.7
			c-0.8,0.2-1.3,1-1.3,1.8v14.6c0,1,0.8,1.9,1.9,1.9H598c1,0,1.9-0.8,1.9-1.9v-14.5c0-0.9-0.6-1.6-1.4-1.8l-23.1-5.8
			c-0.8-0.2-1.4-1-1.4-1.8v-69l0.4-0.5c0.6-0.6,13.7-15.1,29.3-15.1h1.4l3.6,20.5c0.2,0.9,0.9,1.6,1.9,1.6h17c1,0,1.8-0.8,1.9-1.8
			l1.8-44c0-0.8-0.5-1.6-1.2-1.9C626.3,96.4,618.6,94.1,608.8,94.1z"/>
		<path class="st1" d="M718.5,208.3c-19.1,0-31.4-12.9-33.1-34.5l-0.1-1.8l84.9-0.8c0.9,0,1.7-0.7,1.9-1.6c0.5-3.6,1.1-9.9,1.1-16.2
			c0-37.7-20.9-59.4-57.3-59.4c-41.7,0-67.7,28.2-67.7,73.6c0,44.1,23.4,68.4,65.8,68.4c26.6,0,48.8-14.5,55.8-19.6
			c0.8-0.5,1-1.6,0.6-2.4l-8.2-15.8c-0.5-0.9-1.6-1.3-2.5-0.8C752.9,200.9,735.7,208.3,718.5,208.3z M686,149.4
			c2.3-16.9,12.8-27.4,27.3-27.4c14.6,0,22.9,10.1,22.9,27.6v1.6h-50.5L686,149.4z"/>
		<path class="st1" d="M833.7,236.2c21.1,0,40.7-18.8,40.9-19l2-1.9l4.7,16.9c0.2,0.8,1,1.4,1.9,1.4l45.7-1.6c1,0,1.8-0.9,1.8-1.9
			v-14.6c0-0.9-0.6-1.6-1.4-1.8l-16.6-4c-0.8-0.2-1.4-1-1.4-1.8V144c0-36.7-13.8-49.7-52.9-49.7c-20.3,0-45.2,7.1-53.2,9.5
			c-0.8,0.3-1.4,1-1.3,1.9l1.5,32.3c0,1,0.9,1.8,1.9,1.8h17.2c0.9,0,1.6-0.6,1.8-1.4l3.4-14.5l0.8-0.3c0.4-0.2,10.1-4,23.5-4
			c14.4,0,21.6,6.9,21.6,20.6v14c0,1-0.8,1.9-1.9,1.9h-17.9c-41,0-60.9,13.5-60.9,41.2C794.9,221.9,809,236.2,833.7,236.2z
			 M859.2,174.7h14.6c1,0,1.9,0.8,1.9,1.9v17.8l-0.4,0.5c-0.6,0.6-14.7,15.6-29,15.6c-10.6,0-17-6.4-17-17.2
			C829.2,180.2,838.2,174.7,859.2,174.7z"/>
		<path class="st1" d="M1016.1,209.6c-12.9,0-15.4-9.2-15.4-25v-56.9c0-1,0.8-1.9,1.9-1.9h32.6c1,0,1.9-0.8,1.9-1.9v-21.5
			c0-1-0.8-1.9-1.9-1.9h-32.6c-1,0-1.9-0.8-1.9-1.9V60.2c0-1.2-1.1-2.1-2.2-1.9L966.6,64c-0.9,0.2-1.6,0.9-1.6,1.9v32.7
			c0,0.9-0.7,1.7-1.6,1.9l-20.9,2.9c-0.9,0.1-1.6,0.9-1.6,1.9v18.6c0,1,0.8,1.9,1.9,1.9h20.4c1,0,1.9,0.8,1.9,1.9v59.5
			c0,33.9,11.3,49,36.8,49c13.8,0,27.1-4.6,40.7-14c0.8-0.5,1-1.5,0.6-2.4l-6.6-13.9c-0.4-0.9-1.5-1.3-2.5-0.9
			C1029.5,207,1021.9,209.6,1016.1,209.6z"/>
		<path class="st1" d="M1101.9,236.2c21.1,0,40.7-18.8,40.9-19l2-1.9l4.7,16.9c0.2,0.8,1,1.4,1.9,1.4l45.7-1.6c1,0,1.8-0.9,1.8-1.9
			v-14.6c0-0.9-0.6-1.6-1.4-1.8l-16.6-4c-0.8-0.2-1.4-1-1.4-1.8V144c0-36.7-13.8-49.7-52.9-49.7c-20.3,0-45.2,7.1-53.2,9.5
			c-0.8,0.3-1.4,1-1.3,1.9l1.5,32.3c0,1,0.9,1.8,1.9,1.8h17.2c0.9,0,1.6-0.6,1.8-1.4l3.4-14.5l0.8-0.3c0.4-0.2,10.1-4,23.5-4
			c14.4,0,21.6,6.9,21.6,20.6v14c0,1-0.8,1.9-1.9,1.9H1124c-41,0-60.9,13.5-60.9,41.2C1063.1,221.9,1077.2,236.2,1101.9,236.2z
			 M1127.4,174.7h14.6c1,0,1.9,0.8,1.9,1.9v17.8l-0.4,0.5c-0.6,0.6-14.7,15.6-29,15.6c-10.6,0-17-6.4-17-17.2
			C1097.4,180.2,1106.4,174.7,1127.4,174.7z"/>
		<path class="st1" d="M1301.4,94.1c-18.6,0-31.1,9.5-35.7,13.1l0,0c-1.2,0.9-3,0.1-3-1.5v-68c0-1.1-0.9-1.9-2-1.9l-51.3,1.8
			c-1,0-1.8,0.9-1.8,1.9v14.6c0,0.9,0.6,1.6,1.4,1.8l16.7,4.4c0.8,0.2,1.4,1,1.4,1.8v167.5c0,0.9,0.6,1.7,1.5,1.8
			c7.4,1.4,28.2,5.1,50.8,5.1c48.2,0,73.6-26.1,73.6-75.5C1352.9,118,1334.6,94.1,1301.4,94.1z M1283.5,208.9
			c-13.4,0-19.5-2.1-19.8-2.2l-1.1-0.4v-71.6l0.3-0.4c0.4-0.5,9.8-12.3,26-12.3c18.2,0,27.1,13.7,27.1,41.9
			C1316,193.7,1305.1,208.9,1283.5,208.9z"/>
		<path class="st1" d="M1371.8,39.5v14.6c0,0.9,0.6,1.6,1.4,1.8l17.9,4.5c0.8,0.2,1.4,1,1.4,1.8v145.5c0,0.8-0.5,1.6-1.3,1.8
			l-18.1,5.7c-0.8,0.2-1.3,1-1.3,1.8v14.6c0,1,0.8,1.9,1.9,1.9h76.3c1,0,1.9-0.8,1.9-1.9v-14.5c0-0.8-0.6-1.6-1.4-1.8l-20.6-5.7
			c-0.8-0.2-1.4-1-1.4-1.8V37.7c0-1.1-0.9-1.9-2-1.9l-52.9,1.8C1372.6,37.7,1371.8,38.5,1371.8,39.5z"/>
		<path class="st1" d="M1535.7,208.3c-19.1,0-31.4-12.9-33.1-34.5l-0.1-1.8l84.9-0.8c0.9,0,1.7-0.7,1.9-1.6
			c0.5-3.6,1.1-9.9,1.1-16.2c0-37.7-20.9-59.4-57.3-59.4c-41.7,0-67.7,28.2-67.7,73.6c0,44.1,23.4,68.4,65.8,68.4
			c26.6,0,48.8-14.5,55.8-19.6c0.8-0.5,1-1.6,0.6-2.4l-8.2-15.8c-0.5-0.9-1.6-1.3-2.5-0.8C1570.1,200.9,1552.9,208.3,1535.7,208.3z
			 M1503.2,149.4c2.3-16.9,12.8-27.4,27.3-27.4c14.6,0,22.9,10.1,22.9,27.6v1.6H1503L1503.2,149.4z"/>
	</g>
</g>
</svg>
