<?xml version="1.0" encoding="utf-8"?>
<!DOCTYPE svg PUBLIC "-//W3C//DTD SVG 20010904//EN" "http://www.w3.org/TR/2001/REC-SVG-20010904/DTD/svg10.dtd">
<svg version="1.0" xmlns="http://www.w3.org/2000/svg" width="409px" height="406px" viewBox="0 0 409 406" preserveAspectRatio="xMidYMid meet">
 <g fill="#66a9dd">
  <path d="M177 405.2 l-3.5 -0.7 -0.5 -14.5 -0.5 -14.4 -6.5 -1.3 c-3.6 -0.7 -10 -2.4 -14.2 -3.8 -4.2 -1.4 -8.4 -2.2 -9.2 -1.9 -0.8 0.3 -4.3 5.5 -7.7 11.6 -3.4 6 -6.7 11.2 -7.4 11.4 -3.3 1.3 -41 -19.8 -48.2 -26.9 l-2.2 -2.2 6.9 -12.2 7 -12.3 -11 -11 c-6.1 -6 -11.4 -11 -11.8 -11 -0.4 0 -5.8 2.9 -12 6.5 -6.1 3.6 -11.6 6.5 -12.1 6.5 -2.8 0 -15.7 -20 -24.2 -37.4 -4.4 -9.1 -5.6 -12.3 -4.7 -13.3 0.6 -0.8 5 -3.4 9.7 -6 11.9 -6.4 14.4 -8.2 13.7 -10.2 -2.1 -6.6 -6.6 -24 -6.6 -25.7 0 -1.2 -0.7 -2.5 -1.6 -2.8 -0.9 -0.3 -7.6 -0.6 -15 -0.6 l-13.4 0 -0.7 -2.7 c-1.4 -5 -1 -51.5 0.5 -54.1 1.2 -2.2 1.7 -2.2 14.9 -2.1 7.4 0 13.9 -0.3 14.2 -0.8 0.4 -0.4 1.6 -4.4 2.6 -8.8 1 -4.4 2.6 -10.6 3.6 -13.9 1.1 -3.2 1.9 -6.2 1.9 -6.6 0 -0.4 -5.6 -4 -12.4 -7.9 l-12.5 -7.2 1.4 -3.9 c3.7 -10.5 22.2 -42 26.9 -45.9 1.4 -1.2 2.9 -0.6 10.9 4.1 5 3.1 10.6 6.3 12.4 7.2 l3.2 1.6 11.1 -11 11.1 -11 -1.7 -3.2 c-0.9 -1.8 -4.1 -7.5 -7.2 -12.5 -4.7 -8 -5.3 -9.5 -4.1 -10.9 1.4 -1.7 13.7 -10.3 20.4 -14.3 9.4 -5.5 27.8 -14.2 29.1 -13.7 0.8 0.3 1.8 1.4 2.2 2.3 0.4 1 3.3 6.5 6.6 12.1 5 8.9 6.1 10.3 8 9.9 1.1 -0.3 5.9 -1.6 10.6 -3 4.7 -1.4 10.5 -2.9 13 -3.4 l4.5 -0.9 0.5 -14.9 0.5 -15 4.5 -0.7 c5.8 -0.9 38.5 -1 47.2 -0.2 l6.7 0.7 0.3 15 0.3 15 8.5 1.9 c4.7 1 11.4 2.8 14.9 3.9 7.6 2.6 6.2 3.7 15.3 -12.4 3.3 -5.9 6.6 -10.7 7.2 -10.7 0.6 0 7.6 3.3 15.6 7.3 14.7 7.5 33.9 20.2 34 22.5 0 0.7 -1.1 2.9 -2.3 5 -1.3 2 -3.9 6.4 -5.7 9.7 -1.8 3.3 -3.9 6.9 -4.6 8 -1.1 1.8 -0.2 3 10.1 13.2 l11.2 11.3 12.3 -7.1 c9.7 -5.5 12.5 -6.7 13.6 -5.8 4.8 4 19.3 27.8 24.8 40.7 3.8 8.9 4.2 10.2 2.7 10.2 -2.3 0 -23.1 12.9 -23.1 14.3 0 0.6 1.4 6 3 12.1 1.7 6.1 3.4 12.5 3.8 14.1 l0.8 3 14.4 0.5 14.5 0.5 0.8 6 c1.1 8.3 0.5 50.1 -0.8 51.4 -0.6 0.5 -7.3 1.1 -15 1.3 l-14 0.3 -1.6 7.5 c-0.9 4.1 -2.6 10.7 -3.8 14.6 -1.1 3.9 -2.1 7.5 -2.1 8.1 0 0.8 5.6 4.3 16.1 10.1 7.5 4.1 7.9 4.5 7.2 7 -1 4.1 -11.7 24.4 -17.8 33.7 -6.1 9.4 -10.2 14.5 -11.8 14.5 -0.5 0 -5.8 -2.9 -11.7 -6.5 -5.9 -3.6 -11.1 -6.5 -11.5 -6.5 -0.4 0 -5.8 5 -12 11.2 l-11.3 11.2 5 8.5 c2.8 4.7 5.9 9.8 6.9 11.3 3.2 4.6 2.9 5 -9.2 13.2 -12.3 8.4 -37 21.2 -39.3 20.3 -0.6 -0.3 -3.9 -5.5 -7.4 -11.6 -3.5 -6.1 -6.7 -11.3 -7.2 -11.6 -0.5 -0.3 -4.4 0.5 -8.7 1.9 -4.3 1.4 -9.4 2.8 -11.3 3.1 -1.9 0.4 -5.2 1.2 -7.3 1.8 l-3.8 1 0.2 13.5 c0.1 9 -0.3 13.8 -1 14.5 -1.3 1.3 -47.9 2 -54.1 0.9z m16.3 -110.7 c12.6 -2.2 24 -6 34.5 -11.6 12.3 -6.5 19 -11.5 28.4 -21.1 21.4 -21.9 33.3 -49.2 35.4 -80.9 l0.7 -10.7 7.4 -6.7 c7.6 -6.9 12.4 -13.5 8.7 -12.1 -4.6 1.8 -17.5 4.9 -18 4.3 -0.4 -0.3 2.1 -3.2 5.4 -6.5 3.3 -3.2 7 -7.8 8.2 -10.1 2.2 -4.4 2.1 -6.2 -0.2 -4.4 -2.1 1.7 -17.4 7.2 -20.5 7.5 -2 0.1 -4.2 -0.8 -6.9 -2.9 -18.8 -15 -46.4 -11.9 -59.7 6.6 -6.5 8.9 -9 17.3 -8.5 27.5 0.1 3.9 0 7.3 -0.5 7.5 -0.4 0.2 -4 0.1 -8 -0.3 -24.6 -2.2 -55 -17.4 -72.6 -36.1 l-6.2 -6.6 -2.2 4.8 c-1.8 4 -2.2 6.6 -2.2 15.3 0 9.7 0.2 11 3.2 17.3 2 4.2 5.3 8.8 8.8 12.3 3.1 3.1 5.4 5.9 5.1 6.1 -0.5 0.5 -9.8 -1.5 -15.5 -3.3 -2.3 -0.7 -2.4 -0.6 -1.9 4.3 0.7 7.2 5.9 17.6 11.6 23.2 4.6 4.5 15.8 11.1 18.9 11.1 2.1 0 1.5 1.7 -0.9 2.4 -1.3 0.3 -5.1 0.6 -8.5 0.6 -3.5 0 -6.3 0.2 -6.3 0.5 0 3.8 12.7 19.5 15.7 19.5 0.7 0 1.3 0.4 1.3 0.8 0 1.4 9.1 5.1 14.9 6.2 3 0.6 5.7 1.2 6 1.5 0.9 1 -2.3 3.2 -10.9 7.8 -11.2 6 -23.8 9.6 -37 10.5 l-10.5 0.8 7.5 3.8 c9.6 5 22 9.3 31.8 11 10.5 1.9 32.9 2 43.5 0.1z"/>
 </g>
</svg>